<svg width="35" height="22" viewBox="0 0 35 22" fill="none" xmlns="http://www.w3.org/2000/svg">
<path d="M7.16792 4.3115C12.8742 -1.38329 22.126 -1.38329 27.8323 4.3115L28.5191 4.99683C28.5868 5.06378 28.6406 5.14392 28.6774 5.23248C28.7142 5.32105 28.7331 5.41623 28.7331 5.5124C28.7331 5.60857 28.7142 5.70375 28.6774 5.79232C28.6406 5.88088 28.5868 5.96102 28.5191 6.02797L26.1698 8.37258C26.1005 8.44101 26.0079 8.47929 25.9115 8.47929C25.815 8.47929 25.7224 8.44101 25.6532 8.37258L24.7081 7.42943C20.7272 3.45659 14.2729 3.45659 10.292 7.42943L9.27994 8.43953C9.21071 8.50797 9.11807 8.54624 9.02164 8.54624C8.9252 8.54624 8.83256 8.50797 8.76334 8.43953L6.41414 6.09492C6.34642 6.02797 6.29257 5.94783 6.25581 5.85927C6.21904 5.77071 6.2001 5.67552 6.2001 5.57935C6.2001 5.48319 6.21904 5.388 6.25581 5.29943C6.29257 5.21087 6.34642 5.13073 6.41414 5.06378L7.16792 4.3115ZM32.6907 9.1603L34.7816 11.247C34.8494 11.3139 34.9032 11.3941 34.94 11.4826C34.9767 11.5712 34.9957 11.6664 34.9957 11.7625C34.9957 11.8587 34.9767 11.9539 34.94 12.0425C34.9032 12.131 34.8494 12.2112 34.7816 12.2781L25.3538 21.6871C25.2154 21.824 25.0301 21.9005 24.8372 21.9005C24.6443 21.9005 24.459 21.824 24.3206 21.6871L17.6293 15.0092C17.5947 14.975 17.5484 14.9559 17.5002 14.9559C17.4519 14.9559 17.4056 14.975 17.371 15.0092L10.6798 21.6871C10.5414 21.824 10.3561 21.9005 10.1632 21.9005C9.97035 21.9005 9.78506 21.824 9.64662 21.6871L0.218436 12.278C0.150715 12.211 0.0968747 12.1309 0.0601073 12.0423C0.02334 11.9538 0.00439453 11.8586 0.00439453 11.7624C0.00439453 11.6663 0.02334 11.5711 0.0601073 11.4825C0.0968747 11.3939 0.150715 11.3138 0.218436 11.2468L2.30934 9.16018C2.44778 9.02331 2.63307 8.94676 2.82594 8.94676C3.0188 8.94676 3.20409 9.02331 3.34254 9.16018L10.034 15.8381C10.0686 15.8723 10.1149 15.8914 10.1631 15.8914C10.2113 15.8914 10.2576 15.8723 10.2923 15.8381L16.9833 9.16018C17.1218 9.02331 17.3071 8.94676 17.4999 8.94676C17.6928 8.94676 17.8781 9.02331 18.0165 9.16018L24.7079 15.8382C24.7425 15.8724 24.7889 15.8915 24.8371 15.8915C24.8853 15.8915 24.9316 15.8724 24.9662 15.8382L31.6575 9.1603C31.796 9.02343 31.9813 8.94688 32.1741 8.94688C32.367 8.94688 32.5523 9.02343 32.6907 9.1603Z" fill="#3B99FC"/>
</svg>
