<svg width="22" height="18" viewBox="0 0 22 18" fill="none" xmlns="http://www.w3.org/2000/svg">
<path fill-rule="evenodd" clip-rule="evenodd" d="M15.006 16.2497C15.5716 17.0491 16.2502 17.9783 16.2502 17.9783C20.1973 17.835 21.8263 15.0346 21.9867 14.7588C21.9956 14.7434 22 14.7359 22 14.7371C22 7.84398 19.2853 2.24746 19.2853 2.24746C16.5895 -0.0646331 14.0069 0.000182687 14.0069 0.000182687L13.7429 0.345922C16.9477 1.44794 18.437 3.06857 18.437 3.06857C16.4764 1.85851 14.5536 1.25348 12.7626 1.01578C11.4053 0.842909 10.1045 0.886131 8.95458 1.05899C8.85584 1.05899 8.77147 1.07547 8.67637 1.09402C8.66254 1.09672 8.64847 1.09947 8.63411 1.10222C7.97429 1.18865 6.37189 1.44794 4.35475 2.46353C3.65724 2.80927 3.2425 3.06857 3.2425 3.06857C3.2425 3.06857 4.78835 1.36151 8.18166 0.25949L7.99315 0.000182687C7.99315 0.000182687 5.42931 -0.0646331 2.71465 2.24746C2.71465 2.24746 0 7.84398 0 14.7371C0 14.7371 1.58355 17.8487 5.74979 18C5.74979 18 6.4473 17.0491 7.01285 16.2281C4.61868 15.4069 3.7138 13.6999 3.7138 13.6999C3.7138 13.6999 3.90231 13.8512 4.24165 14.0672C4.2533 14.0672 4.26495 14.0755 4.28105 14.0869C4.291 14.0939 4.30265 14.1021 4.31705 14.1104C4.34533 14.1321 4.37361 14.1482 4.40189 14.1645C4.43016 14.1807 4.45844 14.1968 4.48672 14.2185C4.95801 14.521 5.42931 14.7587 5.8629 14.9531C6.63582 15.3205 7.55956 15.6447 8.63411 15.8823C10.048 16.1848 11.7069 16.2928 13.5167 15.9039C14.4027 15.7094 15.3076 15.4285 16.2502 14.9748C16.91 14.6939 17.6452 14.2833 18.4182 13.6999C18.4182 13.6999 17.4756 15.4502 15.006 16.2497ZM12.4421 10.3506C12.4421 9.03249 13.2904 7.9737 14.3649 7.9737C15.4206 7.9737 16.2878 9.03249 16.2878 10.3506C16.2878 11.6687 15.4395 12.7275 14.3649 12.7275C13.3092 12.7275 12.4421 11.6687 12.4421 10.3506ZM5.56117 10.3506C5.56117 9.03249 6.4095 7.9737 7.48405 7.9737C8.5586 7.9737 9.4258 9.03249 9.4069 10.3506C9.4069 11.6687 8.5586 12.7275 7.48405 12.7275C6.42835 12.7275 5.56117 11.6687 5.56117 10.3506Z" fill="white"/>
</svg>
