<svg xmlns="http://www.w3.org/2000/svg" xmlns:xlink="http://www.w3.org/1999/xlink" width="250" zoomAndPan="magnify" viewBox="0 0 187.5 187.499992" height="250" preserveAspectRatio="xMidYMid meet" version="1.0"><defs><g/><clipPath id="id1"><path d="M 27.042969 27.292969 L 160.542969 27.292969 L 160.542969 160 L 27.042969 160 Z M 27.042969 27.292969 " clip-rule="nonzero"/></clipPath><clipPath id="id2"><path d="M 102 27.292969 L 107 27.292969 L 107 32 L 102 32 Z M 102 27.292969 " clip-rule="nonzero"/></clipPath><clipPath id="id3"><path d="M 84 27.292969 L 89 27.292969 L 89 32 L 84 32 Z M 84 27.292969 " clip-rule="nonzero"/></clipPath><clipPath id="id4"><path d="M 27.042969 99 L 32 99 L 32 104 L 27.042969 104 Z M 27.042969 99 " clip-rule="nonzero"/></clipPath><clipPath id="id5"><path d="M 27.042969 82 L 31 82 L 31 87 L 27.042969 87 Z M 27.042969 82 " clip-rule="nonzero"/></clipPath><clipPath id="id6"><path d="M 80 156 L 85 156 L 85 160.042969 L 80 160.042969 Z M 80 156 " clip-rule="nonzero"/></clipPath><clipPath id="id7"><path d="M 99 156 L 104 156 L 104 160.042969 L 99 160.042969 Z M 99 156 " clip-rule="nonzero"/></clipPath><clipPath id="id8"><path d="M 27.042969 98 L 32 98 L 32 103 L 27.042969 103 Z M 27.042969 98 " clip-rule="nonzero"/></clipPath><clipPath id="id9"><path d="M 156 101 L 160.542969 101 L 160.542969 106 L 156 106 Z M 156 101 " clip-rule="nonzero"/></clipPath><clipPath id="id10"><path d="M 41.855469 41.855469 L 145.355469 41.855469 L 145.355469 145.355469 L 41.855469 145.355469 Z M 41.855469 41.855469 " clip-rule="nonzero"/></clipPath></defs><g clip-path="url(#id1)"><path fill="#4a4948" d="M 160.28125 93.902344 C 160.28125 90.402344 155.105469 90.003906 153.359375 86.734375 C 153.996094 82.886719 159.277344 81.242188 158.394531 77.738281 C 157.519531 74.277344 152.21875 75.257812 149.785156 72.316406 C 149.121094 68.273438 154.128906 65.273438 152.339844 62.019531 C 150.554688 58.777344 145.371094 61.351562 142.300781 58.679688 C 142.152344 58.480469 142.011719 58.28125 141.863281 58.085938 L 142.035156 58.265625 C 139.382812 54.425781 144.011719 49.792969 141.226562 47.011719 C 138.746094 44.535156 134.800781 47.90625 131.253906 46.832031 C 128.980469 43.660156 131.546875 38.769531 128.441406 36.914062 C 125.371094 35.085938 122.316406 39.519531 118.511719 39.160156 C 115.179688 36.769531 116.59375 31.113281 113.023438 30.074219 C 109.414062 29.027344 107.570312 34.671875 103.386719 34.800781 C 103.085938 34.757812 102.785156 34.714844 102.484375 34.671875 L 103.078125 34.691406 C 98.488281 33.847656 98.476562 27.304688 94.53125 27.304688 C 91.023438 27.304688 90.625 32.472656 87.351562 34.214844 C 83.496094 33.578125 81.847656 28.308594 78.335938 29.191406 C 74.871094 30.0625 75.851562 35.355469 72.90625 37.785156 C 68.855469 38.445312 65.851562 33.445312 62.589844 35.234375 C 59.160156 37.113281 62.222656 42.769531 58.746094 45.738281 C 58.460938 45.953125 58.175781 46.167969 57.894531 46.386719 L 58.832031 45.519531 C 54.984375 48.164062 50.339844 43.542969 47.550781 46.328125 C 45.074219 48.800781 48.449219 52.738281 47.371094 56.277344 C 44.195312 58.546875 39.292969 55.984375 37.4375 59.085938 C 35.605469 62.148438 40.046875 65.199219 39.6875 68.996094 C 37.289062 72.320312 31.625 70.910156 30.585938 74.476562 C 29.484375 78.253906 35.773438 80.09375 35.300781 84.730469 C 35.273438 85.007812 35.257812 85.222656 35.25 85.378906 C 35.210938 85.652344 35.175781 85.925781 35.144531 86.199219 L 35.210938 84.398438 C 34.363281 88.980469 27.808594 88.992188 27.808594 92.929688 C 27.808594 96.429688 32.988281 96.828125 34.734375 100.09375 C 34.097656 103.941406 28.8125 105.589844 29.699219 109.09375 C 30.570312 112.550781 35.875 111.574219 38.308594 114.515625 C 38.96875 118.558594 33.960938 121.554688 35.753906 124.808594 C 37.652344 128.261719 43.402344 125.121094 46.355469 128.734375 C 46.585938 129.011719 46.753906 129.203125 46.863281 129.320312 C 47.027344 129.53125 47.1875 129.742188 47.351562 129.953125 L 46.058594 128.5625 C 48.707031 132.402344 44.078125 137.035156 46.867188 139.820312 C 49.347656 142.296875 53.289062 138.925781 56.835938 140 C 59.113281 143.167969 56.542969 148.0625 59.652344 149.914062 C 62.71875 151.742188 65.773438 147.3125 69.578125 147.671875 C 72.914062 150.0625 71.496094 155.71875 75.070312 156.753906 C 78.859375 157.855469 80.699219 151.578125 85.347656 152.046875 C 85.410156 152.050781 85.46875 152.058594 85.527344 152.066406 C 85.828125 152.109375 86.128906 152.152344 86.429688 152.191406 L 85.011719 152.136719 C 89.605469 152.984375 89.617188 159.523438 93.5625 159.523438 C 97.066406 159.523438 97.46875 154.359375 100.738281 152.613281 C 104.59375 153.25 106.242188 158.523438 109.753906 157.640625 C 113.222656 156.769531 112.242188 151.476562 115.1875 149.046875 C 119.238281 148.386719 122.242188 153.382812 125.503906 151.597656 C 128.839844 149.769531 126.03125 144.363281 129.078125 141.335938 C 129.339844 141.144531 129.601562 140.953125 129.859375 140.757812 L 129.261719 141.3125 C 133.109375 138.667969 137.75 143.285156 140.539062 140.503906 C 143.019531 138.027344 139.640625 134.09375 140.71875 130.554688 C 143.894531 128.28125 148.796875 130.847656 150.652344 127.742188 C 152.488281 124.683594 148.046875 121.632812 148.40625 117.835938 C 150.800781 114.507812 156.46875 115.921875 157.507812 112.355469 C 158.542969 108.796875 153.027344 106.957031 152.773438 102.878906 C 152.8125 102.628906 152.855469 102.382812 152.890625 102.128906 L 152.878906 102.429688 C 153.726562 97.847656 160.28125 97.835938 160.28125 93.898438 Z M 94.046875 147.757812 C 63.976562 147.757812 39.601562 123.425781 39.601562 93.414062 C 39.601562 63.402344 63.976562 39.074219 94.042969 39.074219 C 124.113281 39.074219 148.492188 63.402344 148.492188 93.414062 C 148.492188 123.425781 124.113281 147.757812 94.042969 147.757812 Z M 94.046875 147.757812 " fill-opacity="1" fill-rule="nonzero"/></g><path fill="#a6a6a6" d="M 57.3125 41.5 C 57.3125 41.757812 57.261719 42.003906 57.164062 42.238281 C 57.066406 42.476562 56.925781 42.683594 56.746094 42.867188 C 56.566406 43.046875 56.355469 43.1875 56.117188 43.285156 C 55.882812 43.382812 55.636719 43.429688 55.378906 43.429688 C 55.121094 43.429688 54.875 43.382812 54.636719 43.285156 C 54.402344 43.1875 54.191406 43.046875 54.011719 42.867188 C 53.828125 42.683594 53.6875 42.476562 53.589844 42.238281 C 53.492188 42.003906 53.445312 41.757812 53.445312 41.5 C 53.445312 41.246094 53.492188 41 53.589844 40.761719 C 53.6875 40.523438 53.828125 40.316406 54.011719 40.136719 C 54.191406 39.953125 54.402344 39.816406 54.636719 39.71875 C 54.875 39.617188 55.121094 39.570312 55.378906 39.570312 C 55.636719 39.570312 55.882812 39.617188 56.117188 39.71875 C 56.355469 39.816406 56.566406 39.953125 56.746094 40.136719 C 56.925781 40.316406 57.066406 40.523438 57.164062 40.761719 C 57.261719 41 57.3125 41.246094 57.3125 41.5 Z M 57.3125 41.5 " fill-opacity="1" fill-rule="nonzero"/><path fill="#a6a6a6" d="M 72.550781 32.785156 C 72.550781 33.042969 72.5 33.289062 72.402344 33.523438 C 72.304688 33.761719 72.164062 33.96875 71.984375 34.152344 C 71.800781 34.332031 71.59375 34.472656 71.355469 34.570312 C 71.121094 34.667969 70.871094 34.71875 70.617188 34.71875 C 70.359375 34.71875 70.113281 34.667969 69.875 34.570312 C 69.640625 34.472656 69.429688 34.332031 69.25 34.152344 C 69.066406 33.96875 68.925781 33.761719 68.828125 33.523438 C 68.730469 33.289062 68.683594 33.042969 68.683594 32.785156 C 68.683594 32.53125 68.730469 32.285156 68.828125 32.046875 C 68.925781 31.8125 69.066406 31.601562 69.25 31.421875 C 69.429688 31.238281 69.640625 31.101562 69.875 31.003906 C 70.113281 30.90625 70.359375 30.855469 70.617188 30.855469 C 70.871094 30.855469 71.121094 30.90625 71.355469 31.003906 C 71.59375 31.101562 71.800781 31.238281 71.984375 31.421875 C 72.164062 31.601562 72.304688 31.8125 72.402344 32.046875 C 72.5 32.285156 72.550781 32.53125 72.550781 32.785156 Z M 72.550781 32.785156 " fill-opacity="1" fill-rule="nonzero"/><g clip-path="url(#id2)"><path fill="#a6a6a6" d="M 106.578125 29.234375 C 106.578125 29.492188 106.527344 29.738281 106.429688 29.976562 C 106.332031 30.210938 106.191406 30.421875 106.011719 30.601562 C 105.828125 30.78125 105.621094 30.921875 105.382812 31.019531 C 105.144531 31.117188 104.898438 31.167969 104.644531 31.167969 C 104.386719 31.167969 104.140625 31.117188 103.902344 31.019531 C 103.664062 30.921875 103.457031 30.78125 103.273438 30.601562 C 103.09375 30.421875 102.953125 30.210938 102.855469 29.976562 C 102.757812 29.738281 102.707031 29.492188 102.707031 29.234375 C 102.707031 28.980469 102.757812 28.734375 102.855469 28.496094 C 102.953125 28.261719 103.09375 28.050781 103.273438 27.871094 C 103.457031 27.691406 103.664062 27.550781 103.902344 27.453125 C 104.140625 27.355469 104.386719 27.304688 104.644531 27.304688 C 104.898438 27.304688 105.144531 27.355469 105.382812 27.453125 C 105.621094 27.550781 105.828125 27.691406 106.011719 27.871094 C 106.191406 28.050781 106.332031 28.261719 106.429688 28.496094 C 106.527344 28.734375 106.578125 28.980469 106.578125 29.234375 Z M 106.578125 29.234375 " fill-opacity="1" fill-rule="nonzero"/></g><g clip-path="url(#id3)"><path fill="#a6a6a6" d="M 88.355469 29.234375 C 88.355469 29.492188 88.304688 29.738281 88.207031 29.976562 C 88.109375 30.210938 87.96875 30.421875 87.789062 30.601562 C 87.605469 30.78125 87.398438 30.921875 87.160156 31.019531 C 86.921875 31.117188 86.675781 31.167969 86.421875 31.167969 C 86.164062 31.167969 85.917969 31.117188 85.679688 31.019531 C 85.441406 30.921875 85.234375 30.78125 85.054688 30.601562 C 84.871094 30.421875 84.730469 30.210938 84.632812 29.976562 C 84.535156 29.738281 84.484375 29.492188 84.484375 29.234375 C 84.484375 28.980469 84.535156 28.734375 84.632812 28.496094 C 84.730469 28.261719 84.871094 28.050781 85.054688 27.871094 C 85.234375 27.691406 85.441406 27.550781 85.679688 27.453125 C 85.917969 27.355469 86.164062 27.304688 86.421875 27.304688 C 86.675781 27.304688 86.921875 27.355469 87.160156 27.453125 C 87.398438 27.550781 87.605469 27.691406 87.789062 27.871094 C 87.96875 28.050781 88.109375 28.261719 88.207031 28.496094 C 88.304688 28.734375 88.355469 28.980469 88.355469 29.234375 Z M 88.355469 29.234375 " fill-opacity="1" fill-rule="nonzero"/></g><path fill="#a6a6a6" d="M 122.539062 34.101562 C 122.539062 34.359375 122.488281 34.605469 122.390625 34.839844 C 122.292969 35.078125 122.152344 35.285156 121.972656 35.46875 C 121.789062 35.648438 121.582031 35.789062 121.34375 35.886719 C 121.105469 35.984375 120.859375 36.035156 120.601562 36.035156 C 120.347656 36.035156 120.101562 35.984375 119.863281 35.886719 C 119.625 35.789062 119.417969 35.648438 119.234375 35.46875 C 119.054688 35.285156 118.914062 35.078125 118.816406 34.839844 C 118.71875 34.605469 118.667969 34.359375 118.667969 34.101562 C 118.667969 33.847656 118.71875 33.601562 118.816406 33.363281 C 118.914062 33.128906 119.054688 32.917969 119.234375 32.738281 C 119.417969 32.558594 119.625 32.417969 119.863281 32.320312 C 120.101562 32.222656 120.347656 32.171875 120.601562 32.171875 C 120.859375 32.171875 121.105469 32.222656 121.34375 32.320312 C 121.582031 32.417969 121.789062 32.558594 121.972656 32.738281 C 122.152344 32.917969 122.292969 33.128906 122.390625 33.363281 C 122.488281 33.601562 122.539062 33.847656 122.539062 34.101562 Z M 122.539062 34.101562 " fill-opacity="1" fill-rule="nonzero"/><path fill="#a6a6a6" d="M 136.554688 43.257812 C 136.554688 43.511719 136.503906 43.757812 136.40625 43.996094 C 136.308594 44.230469 136.167969 44.441406 135.984375 44.621094 C 135.804688 44.804688 135.597656 44.941406 135.359375 45.039062 C 135.121094 45.136719 134.875 45.1875 134.617188 45.1875 C 134.363281 45.1875 134.117188 45.136719 133.878906 45.039062 C 133.640625 44.941406 133.433594 44.804688 133.25 44.621094 C 133.070312 44.441406 132.929688 44.230469 132.832031 43.996094 C 132.734375 43.757812 132.683594 43.511719 132.683594 43.257812 C 132.683594 43 132.734375 42.753906 132.832031 42.519531 C 132.929688 42.28125 133.070312 42.074219 133.25 41.890625 C 133.433594 41.710938 133.640625 41.570312 133.878906 41.472656 C 134.117188 41.375 134.363281 41.324219 134.617188 41.324219 C 134.875 41.324219 135.121094 41.375 135.359375 41.472656 C 135.597656 41.570312 135.804688 41.710938 135.984375 41.890625 C 136.167969 42.074219 136.308594 42.28125 136.40625 42.519531 C 136.503906 42.753906 136.554688 43 136.554688 43.257812 Z M 136.554688 43.257812 " fill-opacity="1" fill-rule="nonzero"/><path fill="#a6a6a6" d="M 156.097656 70.441406 C 156.097656 70.699219 156.046875 70.945312 155.949219 71.179688 C 155.851562 71.417969 155.710938 71.625 155.53125 71.808594 C 155.347656 71.988281 155.140625 72.128906 154.902344 72.226562 C 154.664062 72.324219 154.417969 72.371094 154.164062 72.371094 C 153.90625 72.371094 153.660156 72.324219 153.421875 72.226562 C 153.183594 72.128906 152.976562 71.988281 152.796875 71.808594 C 152.613281 71.625 152.472656 71.417969 152.375 71.179688 C 152.277344 70.945312 152.226562 70.699219 152.226562 70.441406 C 152.226562 70.1875 152.277344 69.941406 152.375 69.703125 C 152.472656 69.46875 152.613281 69.257812 152.796875 69.078125 C 152.976562 68.894531 153.183594 68.757812 153.421875 68.660156 C 153.660156 68.5625 153.90625 68.511719 154.164062 68.511719 C 154.417969 68.511719 154.664062 68.5625 154.902344 68.660156 C 155.140625 68.757812 155.347656 68.894531 155.53125 69.078125 C 155.710938 69.257812 155.851562 69.46875 155.949219 69.703125 C 156.046875 69.941406 156.097656 70.1875 156.097656 70.441406 Z M 156.097656 70.441406 " fill-opacity="1" fill-rule="nonzero"/><path fill="#a6a6a6" d="M 147.71875 55.976562 C 147.71875 56.234375 147.671875 56.480469 147.574219 56.714844 C 147.476562 56.953125 147.335938 57.160156 147.152344 57.339844 C 146.972656 57.523438 146.761719 57.664062 146.527344 57.761719 C 146.289062 57.859375 146.042969 57.90625 145.785156 57.90625 C 145.53125 57.90625 145.28125 57.859375 145.046875 57.761719 C 144.808594 57.664062 144.601562 57.523438 144.417969 57.339844 C 144.238281 57.160156 144.097656 56.953125 144 56.714844 C 143.902344 56.480469 143.851562 56.234375 143.851562 55.976562 C 143.851562 55.71875 143.902344 55.472656 144 55.238281 C 144.097656 55 144.238281 54.792969 144.417969 54.613281 C 144.601562 54.429688 144.808594 54.292969 145.046875 54.191406 C 145.28125 54.09375 145.53125 54.046875 145.785156 54.046875 C 146.042969 54.046875 146.289062 54.09375 146.527344 54.191406 C 146.761719 54.292969 146.972656 54.429688 147.152344 54.613281 C 147.335938 54.792969 147.476562 55 147.574219 55.238281 C 147.671875 55.472656 147.71875 55.71875 147.71875 55.976562 Z M 147.71875 55.976562 " fill-opacity="1" fill-rule="nonzero"/><path fill="#a6a6a6" d="M 159.964844 86.664062 C 159.964844 86.917969 159.917969 87.167969 159.816406 87.402344 C 159.71875 87.640625 159.582031 87.847656 159.398438 88.027344 C 159.21875 88.210938 159.007812 88.347656 158.769531 88.449219 C 158.535156 88.546875 158.289062 88.59375 158.03125 88.59375 C 157.773438 88.59375 157.527344 88.546875 157.289062 88.449219 C 157.054688 88.347656 156.84375 88.210938 156.664062 88.027344 C 156.480469 87.847656 156.34375 87.640625 156.246094 87.402344 C 156.144531 87.167969 156.097656 86.917969 156.097656 86.664062 C 156.097656 86.40625 156.144531 86.160156 156.246094 85.925781 C 156.34375 85.6875 156.480469 85.480469 156.664062 85.296875 C 156.84375 85.117188 157.054688 84.976562 157.289062 84.878906 C 157.527344 84.78125 157.773438 84.734375 158.03125 84.734375 C 158.289062 84.734375 158.535156 84.78125 158.769531 84.878906 C 159.007812 84.976562 159.21875 85.117188 159.398438 85.296875 C 159.582031 85.480469 159.71875 85.6875 159.816406 85.925781 C 159.917969 86.160156 159.964844 86.40625 159.964844 86.664062 Z M 159.964844 86.664062 " fill-opacity="1" fill-rule="nonzero"/><g clip-path="url(#id4)"><path fill="#a6a6a6" d="M 31.066406 101.132812 C 31.066406 101.386719 31.019531 101.632812 30.921875 101.871094 C 30.824219 102.105469 30.683594 102.316406 30.5 102.496094 C 30.320312 102.679688 30.109375 102.816406 29.875 102.914062 C 29.636719 103.011719 29.390625 103.0625 29.132812 103.0625 C 28.878906 103.0625 28.628906 103.011719 28.394531 102.914062 C 28.15625 102.816406 27.949219 102.679688 27.765625 102.496094 C 27.585938 102.316406 27.445312 102.105469 27.347656 101.871094 C 27.25 101.632812 27.199219 101.386719 27.199219 101.132812 C 27.199219 100.875 27.25 100.628906 27.347656 100.394531 C 27.445312 100.15625 27.585938 99.949219 27.765625 99.765625 C 27.949219 99.585938 28.15625 99.445312 28.394531 99.347656 C 28.628906 99.25 28.878906 99.203125 29.132812 99.203125 C 29.390625 99.203125 29.636719 99.25 29.875 99.347656 C 30.109375 99.445312 30.320312 99.585938 30.5 99.765625 C 30.683594 99.949219 30.824219 100.15625 30.921875 100.394531 C 31.019531 100.628906 31.066406 100.875 31.066406 101.132812 Z M 31.066406 101.132812 " fill-opacity="1" fill-rule="nonzero"/></g><g clip-path="url(#id5)"><path fill="#a6a6a6" d="M 30.929688 84.285156 C 30.929688 84.542969 30.878906 84.789062 30.78125 85.023438 C 30.683594 85.261719 30.542969 85.46875 30.363281 85.652344 C 30.179688 85.832031 29.972656 85.972656 29.734375 86.070312 C 29.496094 86.167969 29.25 86.214844 28.996094 86.214844 C 28.738281 86.214844 28.492188 86.167969 28.253906 86.070312 C 28.015625 85.972656 27.808594 85.832031 27.625 85.652344 C 27.445312 85.46875 27.304688 85.261719 27.207031 85.023438 C 27.109375 84.789062 27.058594 84.542969 27.058594 84.285156 C 27.058594 84.03125 27.109375 83.785156 27.207031 83.546875 C 27.304688 83.308594 27.445312 83.101562 27.625 82.921875 C 27.808594 82.738281 28.015625 82.601562 28.253906 82.503906 C 28.492188 82.402344 28.738281 82.355469 28.996094 82.355469 C 29.25 82.355469 29.496094 82.402344 29.734375 82.503906 C 29.972656 82.601562 30.179688 82.738281 30.363281 82.921875 C 30.542969 83.101562 30.683594 83.308594 30.78125 83.546875 C 30.878906 83.785156 30.929688 84.03125 30.929688 84.285156 Z M 30.929688 84.285156 " fill-opacity="1" fill-rule="nonzero"/></g><path fill="#a6a6a6" d="M 44.507812 52.945312 C 44.507812 53.203125 44.457031 53.449219 44.359375 53.6875 C 44.261719 53.921875 44.121094 54.132812 43.941406 54.3125 C 43.757812 54.492188 43.550781 54.632812 43.3125 54.730469 C 43.074219 54.828125 42.828125 54.878906 42.570312 54.878906 C 42.316406 54.878906 42.070312 54.828125 41.832031 54.730469 C 41.59375 54.632812 41.386719 54.492188 41.203125 54.3125 C 41.023438 54.132812 40.882812 53.921875 40.785156 53.6875 C 40.6875 53.449219 40.636719 53.203125 40.636719 52.945312 C 40.636719 52.691406 40.6875 52.445312 40.785156 52.207031 C 40.882812 51.972656 41.023438 51.761719 41.203125 51.582031 C 41.386719 51.402344 41.59375 51.261719 41.832031 51.164062 C 42.070312 51.066406 42.316406 51.015625 42.570312 51.015625 C 42.828125 51.015625 43.074219 51.066406 43.3125 51.164062 C 43.550781 51.261719 43.757812 51.402344 43.941406 51.582031 C 44.121094 51.761719 44.261719 51.972656 44.359375 52.207031 C 44.457031 52.445312 44.507812 52.691406 44.507812 52.945312 Z M 44.507812 52.945312 " fill-opacity="1" fill-rule="nonzero"/><path fill="#a6a6a6" d="M 36.171875 66.867188 C 36.171875 67.125 36.121094 67.371094 36.023438 67.605469 C 35.925781 67.84375 35.785156 68.050781 35.601562 68.234375 C 35.421875 68.414062 35.210938 68.554688 34.976562 68.652344 C 34.738281 68.75 34.492188 68.796875 34.234375 68.796875 C 33.980469 68.796875 33.734375 68.75 33.496094 68.652344 C 33.257812 68.554688 33.050781 68.414062 32.867188 68.234375 C 32.6875 68.050781 32.546875 67.84375 32.449219 67.605469 C 32.351562 67.371094 32.300781 67.125 32.300781 66.867188 C 32.300781 66.613281 32.351562 66.367188 32.449219 66.128906 C 32.546875 65.894531 32.6875 65.683594 32.867188 65.503906 C 33.050781 65.320312 33.257812 65.183594 33.496094 65.085938 C 33.734375 64.988281 33.980469 64.9375 34.234375 64.9375 C 34.492188 64.9375 34.738281 64.988281 34.976562 65.085938 C 35.210938 65.183594 35.421875 65.320312 35.601562 65.503906 C 35.785156 65.683594 35.925781 65.894531 36.023438 66.128906 C 36.121094 66.367188 36.171875 66.613281 36.171875 66.867188 Z M 36.171875 66.867188 " fill-opacity="1" fill-rule="nonzero"/><path fill="#a6a6a6" d="M 134.113281 145.859375 C 134.113281 146.117188 134.0625 146.363281 133.964844 146.601562 C 133.867188 146.835938 133.726562 147.046875 133.546875 147.226562 C 133.367188 147.40625 133.15625 147.546875 132.917969 147.644531 C 132.683594 147.742188 132.4375 147.792969 132.179688 147.792969 C 131.921875 147.792969 131.675781 147.742188 131.4375 147.644531 C 131.203125 147.546875 130.992188 147.40625 130.8125 147.226562 C 130.628906 147.046875 130.492188 146.835938 130.390625 146.601562 C 130.292969 146.363281 130.246094 146.117188 130.246094 145.859375 C 130.246094 145.605469 130.292969 145.359375 130.390625 145.121094 C 130.492188 144.886719 130.628906 144.675781 130.8125 144.496094 C 130.992188 144.316406 131.203125 144.175781 131.4375 144.078125 C 131.675781 143.980469 131.921875 143.929688 132.179688 143.929688 C 132.4375 143.929688 132.683594 143.980469 132.917969 144.078125 C 133.15625 144.175781 133.367188 144.316406 133.546875 144.496094 C 133.726562 144.675781 133.867188 144.886719 133.964844 145.121094 C 134.0625 145.359375 134.113281 145.605469 134.113281 145.859375 Z M 134.113281 145.859375 " fill-opacity="1" fill-rule="nonzero"/><path fill="#a6a6a6" d="M 118.875 154.574219 C 118.875 154.832031 118.828125 155.078125 118.730469 155.3125 C 118.628906 155.550781 118.492188 155.757812 118.308594 155.941406 C 118.128906 156.121094 117.917969 156.261719 117.683594 156.359375 C 117.445312 156.457031 117.199219 156.503906 116.941406 156.503906 C 116.683594 156.503906 116.4375 156.457031 116.203125 156.359375 C 115.964844 156.261719 115.753906 156.121094 115.574219 155.941406 C 115.390625 155.757812 115.253906 155.550781 115.15625 155.3125 C 115.054688 155.078125 115.007812 154.832031 115.007812 154.574219 C 115.007812 154.320312 115.054688 154.074219 115.15625 153.835938 C 115.253906 153.601562 115.390625 153.390625 115.574219 153.210938 C 115.753906 153.027344 115.964844 152.890625 116.203125 152.792969 C 116.4375 152.695312 116.683594 152.644531 116.941406 152.644531 C 117.199219 152.644531 117.445312 152.695312 117.683594 152.792969 C 117.917969 152.890625 118.128906 153.027344 118.308594 153.210938 C 118.492188 153.390625 118.628906 153.601562 118.730469 153.835938 C 118.828125 154.074219 118.875 154.320312 118.875 154.574219 Z M 118.875 154.574219 " fill-opacity="1" fill-rule="nonzero"/><g clip-path="url(#id6)"><path fill="#a6a6a6" d="M 84.847656 158.125 C 84.847656 158.382812 84.800781 158.628906 84.703125 158.863281 C 84.605469 159.101562 84.464844 159.308594 84.28125 159.492188 C 84.101562 159.671875 83.890625 159.8125 83.65625 159.910156 C 83.417969 160.007812 83.171875 160.054688 82.914062 160.054688 C 82.65625 160.054688 82.410156 160.007812 82.175781 159.910156 C 81.9375 159.8125 81.726562 159.671875 81.546875 159.492188 C 81.367188 159.308594 81.226562 159.101562 81.128906 158.863281 C 81.03125 158.628906 80.980469 158.382812 80.980469 158.125 C 80.980469 157.871094 81.03125 157.621094 81.128906 157.386719 C 81.226562 157.148438 81.367188 156.941406 81.546875 156.761719 C 81.726562 156.578125 81.9375 156.441406 82.175781 156.339844 C 82.410156 156.242188 82.65625 156.195312 82.914062 156.195312 C 83.171875 156.195312 83.417969 156.242188 83.65625 156.339844 C 83.890625 156.441406 84.101562 156.578125 84.28125 156.761719 C 84.464844 156.941406 84.605469 157.148438 84.703125 157.386719 C 84.800781 157.621094 84.847656 157.871094 84.847656 158.125 Z M 84.847656 158.125 " fill-opacity="1" fill-rule="nonzero"/></g><g clip-path="url(#id7)"><path fill="#a6a6a6" d="M 103.070312 158.125 C 103.070312 158.382812 103.023438 158.628906 102.925781 158.863281 C 102.824219 159.101562 102.6875 159.308594 102.503906 159.492188 C 102.324219 159.671875 102.113281 159.8125 101.878906 159.910156 C 101.640625 160.007812 101.394531 160.054688 101.136719 160.054688 C 100.878906 160.054688 100.632812 160.007812 100.398438 159.910156 C 100.160156 159.8125 99.949219 159.671875 99.769531 159.492188 C 99.589844 159.308594 99.449219 159.101562 99.351562 158.863281 C 99.25 158.628906 99.203125 158.382812 99.203125 158.125 C 99.203125 157.871094 99.25 157.621094 99.351562 157.386719 C 99.449219 157.148438 99.589844 156.941406 99.769531 156.761719 C 99.949219 156.578125 100.160156 156.441406 100.398438 156.339844 C 100.632812 156.242188 100.878906 156.195312 101.136719 156.195312 C 101.394531 156.195312 101.640625 156.242188 101.878906 156.339844 C 102.113281 156.441406 102.324219 156.578125 102.503906 156.761719 C 102.6875 156.941406 102.824219 157.148438 102.925781 157.386719 C 103.023438 157.621094 103.070312 157.871094 103.070312 158.125 Z M 103.070312 158.125 " fill-opacity="1" fill-rule="nonzero"/></g><path fill="#a6a6a6" d="M 68.886719 153.257812 C 68.886719 153.515625 68.839844 153.761719 68.742188 153.996094 C 68.644531 154.234375 68.503906 154.441406 68.320312 154.625 C 68.140625 154.804688 67.929688 154.945312 67.695312 155.042969 C 67.457031 155.140625 67.210938 155.1875 66.953125 155.1875 C 66.699219 155.1875 66.449219 155.140625 66.214844 155.042969 C 65.976562 154.945312 65.769531 154.804688 65.585938 154.625 C 65.40625 154.441406 65.265625 154.234375 65.167969 153.996094 C 65.070312 153.761719 65.019531 153.515625 65.019531 153.257812 C 65.019531 153.003906 65.070312 152.757812 65.167969 152.519531 C 65.265625 152.285156 65.40625 152.074219 65.585938 151.894531 C 65.769531 151.710938 65.976562 151.574219 66.214844 151.476562 C 66.449219 151.378906 66.699219 151.328125 66.953125 151.328125 C 67.210938 151.328125 67.457031 151.378906 67.695312 151.476562 C 67.929688 151.574219 68.140625 151.710938 68.320312 151.894531 C 68.503906 152.074219 68.644531 152.285156 68.742188 152.519531 C 68.839844 152.757812 68.886719 153.003906 68.886719 153.257812 Z M 68.886719 153.257812 " fill-opacity="1" fill-rule="nonzero"/><path fill="#a6a6a6" d="M 54.875 144.105469 C 54.875 144.359375 54.824219 144.605469 54.726562 144.84375 C 54.628906 145.082031 54.488281 145.289062 54.308594 145.46875 C 54.125 145.652344 53.917969 145.789062 53.679688 145.886719 C 53.441406 145.988281 53.195312 146.035156 52.9375 146.035156 C 52.683594 146.035156 52.4375 145.988281 52.199219 145.886719 C 51.960938 145.789062 51.753906 145.652344 51.570312 145.46875 C 51.390625 145.289062 51.25 145.082031 51.152344 144.84375 C 51.054688 144.605469 51.003906 144.359375 51.003906 144.105469 C 51.003906 143.847656 51.054688 143.601562 51.152344 143.367188 C 51.25 143.128906 51.390625 142.921875 51.570312 142.738281 C 51.753906 142.558594 51.960938 142.417969 52.199219 142.320312 C 52.4375 142.222656 52.683594 142.175781 52.9375 142.175781 C 53.195312 142.175781 53.441406 142.222656 53.679688 142.320312 C 53.917969 142.417969 54.125 142.558594 54.308594 142.738281 C 54.488281 142.921875 54.628906 143.128906 54.726562 143.367188 C 54.824219 143.601562 54.875 143.847656 54.875 144.105469 Z M 54.875 144.105469 " fill-opacity="1" fill-rule="nonzero"/><path fill="#a6a6a6" d="M 35.328125 116.917969 C 35.328125 117.175781 35.28125 117.421875 35.183594 117.65625 C 35.082031 117.894531 34.945312 118.101562 34.761719 118.285156 C 34.582031 118.464844 34.371094 118.605469 34.136719 118.703125 C 33.898438 118.800781 33.652344 118.851562 33.394531 118.851562 C 33.136719 118.851562 32.890625 118.800781 32.65625 118.703125 C 32.417969 118.605469 32.207031 118.464844 32.027344 118.285156 C 31.847656 118.101562 31.707031 117.894531 31.609375 117.65625 C 31.507812 117.421875 31.460938 117.175781 31.460938 116.917969 C 31.460938 116.664062 31.507812 116.417969 31.609375 116.179688 C 31.707031 115.945312 31.847656 115.734375 32.027344 115.554688 C 32.207031 115.375 32.417969 115.234375 32.65625 115.136719 C 32.890625 115.039062 33.136719 114.988281 33.394531 114.988281 C 33.652344 114.988281 33.898438 115.039062 34.136719 115.136719 C 34.371094 115.234375 34.582031 115.375 34.761719 115.554688 C 34.945312 115.734375 35.082031 115.945312 35.183594 116.179688 C 35.28125 116.417969 35.328125 116.664062 35.328125 116.917969 Z M 35.328125 116.917969 " fill-opacity="1" fill-rule="nonzero"/><path fill="#a6a6a6" d="M 43.707031 131.386719 C 43.707031 131.640625 43.65625 131.886719 43.558594 132.125 C 43.460938 132.359375 43.320312 132.570312 43.140625 132.75 C 42.957031 132.929688 42.75 133.070312 42.511719 133.167969 C 42.273438 133.265625 42.027344 133.316406 41.769531 133.316406 C 41.515625 133.316406 41.269531 133.265625 41.03125 133.167969 C 40.792969 133.070312 40.585938 132.929688 40.402344 132.75 C 40.222656 132.570312 40.082031 132.359375 39.984375 132.125 C 39.886719 131.886719 39.835938 131.640625 39.835938 131.386719 C 39.835938 131.128906 39.886719 130.882812 39.984375 130.644531 C 40.082031 130.410156 40.222656 130.199219 40.402344 130.019531 C 40.585938 129.839844 40.792969 129.699219 41.03125 129.601562 C 41.269531 129.503906 41.515625 129.453125 41.769531 129.453125 C 42.027344 129.453125 42.273438 129.503906 42.511719 129.601562 C 42.75 129.699219 42.957031 129.839844 43.140625 130.019531 C 43.320312 130.199219 43.460938 130.410156 43.558594 130.644531 C 43.65625 130.882812 43.707031 131.128906 43.707031 131.386719 Z M 43.707031 131.386719 " fill-opacity="1" fill-rule="nonzero"/><g clip-path="url(#id8)"><path fill="#a6a6a6" d="M 31.460938 100.699219 C 31.460938 100.953125 31.410156 101.199219 31.3125 101.4375 C 31.214844 101.671875 31.074219 101.882812 30.894531 102.0625 C 30.710938 102.242188 30.503906 102.382812 30.265625 102.480469 C 30.03125 102.578125 29.78125 102.628906 29.527344 102.628906 C 29.269531 102.628906 29.023438 102.578125 28.785156 102.480469 C 28.550781 102.382812 28.339844 102.242188 28.160156 102.0625 C 27.976562 101.882812 27.835938 101.671875 27.738281 101.4375 C 27.640625 101.199219 27.59375 100.953125 27.59375 100.699219 C 27.59375 100.441406 27.640625 100.195312 27.738281 99.957031 C 27.835938 99.722656 27.976562 99.511719 28.160156 99.332031 C 28.339844 99.152344 28.550781 99.011719 28.785156 98.914062 C 29.023438 98.816406 29.269531 98.765625 29.527344 98.765625 C 29.78125 98.765625 30.03125 98.816406 30.265625 98.914062 C 30.503906 99.011719 30.710938 99.152344 30.894531 99.332031 C 31.074219 99.511719 31.214844 99.722656 31.3125 99.957031 C 31.410156 100.195312 31.460938 100.441406 31.460938 100.699219 Z M 31.460938 100.699219 " fill-opacity="1" fill-rule="nonzero"/></g><g clip-path="url(#id9)"><path fill="#a6a6a6" d="M 160.496094 103.074219 C 160.496094 103.332031 160.449219 103.578125 160.351562 103.816406 C 160.253906 104.050781 160.113281 104.261719 159.929688 104.441406 C 159.75 104.621094 159.539062 104.761719 159.304688 104.859375 C 159.066406 104.957031 158.820312 105.007812 158.5625 105.007812 C 158.304688 105.007812 158.058594 104.957031 157.824219 104.859375 C 157.585938 104.761719 157.375 104.621094 157.195312 104.441406 C 157.015625 104.261719 156.875 104.050781 156.777344 103.816406 C 156.679688 103.578125 156.628906 103.332031 156.628906 103.074219 C 156.628906 102.820312 156.679688 102.574219 156.777344 102.335938 C 156.875 102.101562 157.015625 101.890625 157.195312 101.710938 C 157.375 101.53125 157.585938 101.390625 157.824219 101.292969 C 158.058594 101.195312 158.304688 101.144531 158.5625 101.144531 C 158.820312 101.144531 159.066406 101.195312 159.304688 101.292969 C 159.539062 101.390625 159.75 101.53125 159.929688 101.710938 C 160.113281 101.890625 160.253906 102.101562 160.351562 102.335938 C 160.449219 102.574219 160.496094 102.820312 160.496094 103.074219 Z M 160.496094 103.074219 " fill-opacity="1" fill-rule="nonzero"/></g><path fill="#a6a6a6" d="M 146.921875 134.414062 C 146.921875 134.671875 146.871094 134.917969 146.773438 135.152344 C 146.675781 135.390625 146.535156 135.597656 146.351562 135.78125 C 146.171875 135.960938 145.960938 136.101562 145.726562 136.199219 C 145.488281 136.296875 145.242188 136.34375 144.984375 136.34375 C 144.730469 136.34375 144.484375 136.296875 144.246094 136.199219 C 144.007812 136.101562 143.800781 135.960938 143.617188 135.78125 C 143.4375 135.597656 143.296875 135.390625 143.199219 135.152344 C 143.101562 134.917969 143.050781 134.671875 143.050781 134.414062 C 143.050781 134.160156 143.101562 133.914062 143.199219 133.675781 C 143.296875 133.4375 143.4375 133.230469 143.617188 133.050781 C 143.800781 132.867188 144.007812 132.730469 144.246094 132.632812 C 144.484375 132.53125 144.730469 132.484375 144.984375 132.484375 C 145.242188 132.484375 145.488281 132.53125 145.726562 132.632812 C 145.960938 132.730469 146.171875 132.867188 146.351562 133.050781 C 146.535156 133.230469 146.675781 133.4375 146.773438 133.675781 C 146.871094 133.914062 146.921875 134.160156 146.921875 134.414062 Z M 146.921875 134.414062 " fill-opacity="1" fill-rule="nonzero"/><path fill="#a6a6a6" d="M 155.257812 120.492188 C 155.257812 120.75 155.207031 120.996094 155.109375 121.230469 C 155.011719 121.46875 154.871094 121.675781 154.691406 121.859375 C 154.507812 122.039062 154.300781 122.179688 154.0625 122.277344 C 153.824219 122.375 153.578125 122.425781 153.320312 122.425781 C 153.066406 122.425781 152.820312 122.375 152.582031 122.277344 C 152.34375 122.179688 152.136719 122.039062 151.953125 121.859375 C 151.773438 121.675781 151.632812 121.46875 151.535156 121.230469 C 151.4375 120.996094 151.386719 120.75 151.386719 120.492188 C 151.386719 120.238281 151.4375 119.992188 151.535156 119.753906 C 151.632812 119.519531 151.773438 119.308594 151.953125 119.128906 C 152.136719 118.949219 152.34375 118.808594 152.582031 118.710938 C 152.820312 118.613281 153.066406 118.5625 153.320312 118.5625 C 153.578125 118.5625 153.824219 118.613281 154.0625 118.710938 C 154.300781 118.808594 154.507812 118.949219 154.691406 119.128906 C 154.871094 119.308594 155.011719 119.519531 155.109375 119.753906 C 155.207031 119.992188 155.257812 120.238281 155.257812 120.492188 Z M 155.257812 120.492188 " fill-opacity="1" fill-rule="nonzero"/><path fill="#a6a6a6" d="M 129.300781 57.902344 C 119.765625 48.371094 107.089844 43.117188 93.605469 43.117188 C 80.121094 43.117188 67.441406 48.371094 57.902344 57.902344 C 48.371094 67.441406 43.117188 80.117188 43.117188 93.605469 C 43.117188 107.089844 48.371094 119.765625 57.902344 129.300781 C 67.441406 138.835938 80.117188 144.085938 93.601562 144.085938 C 107.085938 144.085938 119.765625 138.835938 129.296875 129.300781 C 138.832031 119.765625 144.082031 107.089844 144.082031 93.605469 C 144.082031 80.121094 138.832031 67.441406 129.296875 57.90625 Z M 93.605469 44.285156 C 115.382812 44.285156 133.90625 58.476562 140.421875 78.09375 L 122.636719 78.09375 L 125.082031 76.625 L 122.109375 78.09375 L 118.429688 78.09375 L 123.738281 74.34375 L 117.378906 78.09375 L 116.035156 78.09375 L 122.722656 72.84375 L 114.765625 78.09375 L 113.050781 78.09375 L 121.105469 70.75 L 111.585938 78.09375 L 111.285156 78.09375 L 119.914062 69.382812 L 109.738281 78.09375 L 109.007812 78.09375 L 118.050781 67.503906 L 108.367188 77.117188 L 116.695312 66.300781 L 105.964844 78.09375 L 105.777344 78.09375 L 114.617188 64.667969 L 106.203125 75.410156 L 113.121094 63.640625 L 103.363281 77.5 L 110.855469 62.28125 L 103.84375 73.988281 L 109.246094 61.449219 L 101.285156 76.414062 L 106.828125 60.382812 L 101.324219 72.867188 L 105.128906 59.753906 L 99.085938 75.59375 L 102.59375 58.996094 L 98.683594 72.070312 L 100.828125 58.585938 L 96.800781 75.050781 L 98.21875 58.148438 L 95.96875 71.605469 L 96.414062 57.960938 L 94.46875 74.796875 L 93.773438 57.847656 L 93.210938 71.480469 L 91.960938 57.882812 L 92.089844 71.527344 L 90.15625 58.011719 L 91.175781 74.933594 L 87.53125 58.367188 L 89.355469 71.886719 L 85.753906 58.71875 L 88.867188 75.378906 L 83.195312 59.394531 L 86.6875 72.582031 L 81.472656 59.964844 L 86.640625 76.109375 L 79.019531 60.953125 L 84.125 73.605469 L 77.386719 61.730469 L 84.515625 77.109375 L 75.074219 63.019531 L 81.710938 74.9375 L 73.546875 63.996094 L 82.367188 78.101562 L 82.304688 78.101562 L 71.414062 65.558594 L 79.480469 76.558594 L 70.019531 66.714844 L 79.292969 78.101562 L 78.765625 78.101562 L 68.097656 68.53125 L 77.144531 78.101562 L 77.046875 78.101562 L 66.863281 69.855469 L 75.492188 78.101562 L 74.121094 78.101562 L 65.179688 71.894531 L 72.71875 78.101562 L 71.742188 78.101562 L 64.117188 73.363281 L 70.503906 78.101562 L 67.484375 78.101562 L 62.703125 75.597656 L 66.660156 78.101562 L 63.816406 78.101562 L 61.832031 77.183594 L 63.453125 78.101562 L 46.785156 78.101562 C 53.300781 58.472656 71.824219 44.285156 93.605469 44.285156 Z M 93.605469 142.921875 C 72.238281 142.921875 54.007812 129.265625 47.171875 110.226562 L 64.371094 110.226562 L 62.558594 111.378906 L 64.753906 110.226562 L 68.523438 110.226562 L 63.960938 113.625 L 69.40625 110.226562 L 70.910156 110.226562 L 65.011719 115.097656 L 72.007812 110.226562 L 73.898438 110.226562 L 66.675781 117.15625 L 75.199219 110.226562 L 75.683594 110.226562 L 67.902344 118.488281 L 77.074219 110.226562 L 78 110.226562 L 69.8125 120.320312 L 79.246094 110.464844 L 71.195312 121.488281 L 80.9375 110.226562 L 81.3125 110.226562 L 73.316406 123.070312 L 81.453125 112.117188 L 74.835938 124.054688 L 84.066406 110.222656 L 84.121094 110.222656 L 77.140625 125.359375 L 83.851562 113.480469 L 78.765625 126.148438 L 86.347656 110.992188 L 81.214844 127.160156 L 86.394531 114.539062 L 82.929688 127.742188 L 88.566406 111.757812 L 85.476562 128.4375 L 89.054688 115.269531 L 87.253906 128.804688 L 90.859375 112.242188 L 89.871094 129.179688 L 91.78125 115.667969 L 91.675781 129.320312 L 93.199219 112.4375 L 94.324219 129.363281 L 94.539062 115.722656 L 96.136719 129.28125 L 95.542969 112.339844 L 98.765625 128.996094 L 97.28125 115.433594 L 100.550781 128.6875 L 97.855469 111.949219 L 103.125 128.074219 L 99.964844 114.800781 L 104.859375 127.546875 L 100.105469 111.277344 L 107.335938 126.621094 L 102.554688 113.84375 L 108.988281 125.882812 L 102.25 110.328125 L 111.335938 124.65625 L 105 112.574219 L 112.882812 123.71875 L 104.910156 110.21875 L 105.167969 110.21875 L 115.058594 122.207031 L 107.269531 111.003906 L 116.476562 121.082031 L 108.074219 110.214844 L 108.804688 110.214844 L 118.445312 119.316406 L 110.269531 110.214844 L 110.554688 110.214844 L 119.71875 118.023438 L 111.949219 110.214844 L 113.515625 110.214844 L 121.457031 116.027344 L 114.75 110.214844 L 115.898438 110.214844 L 122.554688 114.585938 L 116.960938 110.214844 L 120.117188 110.214844 L 124.027344 112.386719 L 120.773438 110.214844 L 123.703125 110.214844 L 124.9375 110.824219 L 123.921875 110.214844 L 140.027344 110.214844 C 133.191406 129.253906 114.960938 142.910156 93.59375 142.910156 Z M 46.765625 109.058594 C 45.160156 104.195312 44.285156 99 44.285156 93.601562 C 44.285156 88.613281 45.03125 83.796875 46.414062 79.253906 L 140.792969 79.253906 C 142.175781 83.796875 142.921875 88.613281 142.921875 93.601562 C 142.921875 98.996094 142.046875 104.195312 140.441406 109.058594 Z M 46.765625 109.058594 " fill-opacity="1" fill-rule="nonzero"/><g clip-path="url(#id10)"><path fill="#a6a6a6" d="M 130.191406 57.011719 C 120.417969 47.238281 107.425781 41.855469 93.605469 41.855469 C 79.785156 41.855469 66.785156 47.238281 57.011719 57.011719 C 47.238281 66.785156 41.855469 79.78125 41.855469 93.605469 C 41.855469 107.425781 47.238281 120.421875 57.011719 130.195312 C 66.785156 139.96875 79.78125 145.351562 93.605469 145.351562 C 107.425781 145.351562 120.421875 139.96875 130.195312 130.195312 C 139.96875 120.421875 145.351562 107.425781 145.351562 93.605469 C 145.351562 79.78125 139.96875 66.785156 130.195312 57.011719 Z M 93.605469 145.152344 C 65.175781 145.152344 42.050781 122.027344 42.050781 93.605469 C 42.050781 65.179688 65.175781 42.050781 93.605469 42.050781 C 122.03125 42.050781 145.15625 65.175781 145.15625 93.605469 C 145.15625 122.03125 122.03125 145.15625 93.605469 145.15625 Z M 93.605469 145.152344 " fill-opacity="1" fill-rule="nonzero"/></g><g fill="#ffffff" fill-opacity="1"><g transform="translate(67.980463, 101.812489)"><g><path d="M 4.554688 0.230469 C 7.429688 0.230469 9.269531 -1.402344 9.316406 -3.933594 C 9.335938 -5.65625 8.695312 -6.875 6.625 -8.488281 C 6.046875 -8.945312 5.40625 -9.453125 4.691406 -10.050781 C 3.65625 -10.902344 3.128906 -11.613281 3.128906 -12.808594 C 3.152344 -13.960938 3.839844 -14.742188 5.035156 -14.742188 C 5.632812 -14.71875 6.234375 -14.558594 6.601562 -14.328125 L 6.601562 -11.730469 L 8.671875 -11.730469 L 8.671875 -15.5 C 7.84375 -16.074219 6.460938 -16.675781 5.058594 -16.695312 C 2.621094 -16.695312 0.941406 -15.042969 0.941406 -12.71875 C 0.941406 -10.96875 1.609375 -9.707031 3.3125 -8.324219 C 3.980469 -7.773438 4.578125 -7.246094 5.175781 -6.785156 C 6.578125 -5.65625 7.105469 -4.96875 7.105469 -3.886719 C 7.105469 -2.574219 6.1875 -1.726562 4.554688 -1.726562 C 3.265625 -1.726562 2.183594 -2.851562 1.886719 -3.378906 L 0.300781 -2.09375 C 0.828125 -1.105469 2.324219 0.230469 4.554688 0.230469 Z M 4.554688 0.230469 "/></g></g></g><g fill="#ffffff" fill-opacity="1"><g transform="translate(76.53559, 101.812489)"><g><path d="M 1.679688 0.0234375 L 3.933594 0.0234375 L 3.933594 -16.488281 L 1.679688 -16.488281 Z M 1.679688 0.0234375 "/></g></g></g><g fill="#ffffff" fill-opacity="1"><g transform="translate(80.376118, 101.812489)"><g><path d="M 5.820312 0.230469 C 7.867188 0.230469 9.316406 -0.507812 10.1875 -1.472656 L 10.1875 -9.359375 L 5.65625 -9.359375 L 5.65625 -7.40625 L 7.957031 -7.40625 L 7.957031 -2.414062 C 7.957031 -2.367188 7.246094 -1.726562 5.820312 -1.726562 C 4.300781 -1.726562 3.566406 -2.414062 3.566406 -3.773438 L 3.566406 -12.695312 C 3.566406 -14.027344 4.324219 -14.742188 5.726562 -14.742188 C 6.347656 -14.742188 7.105469 -14.558594 7.660156 -14.351562 L 7.660156 -11.980469 L 9.726562 -11.980469 L 9.726562 -15.523438 C 8.878906 -16.054688 7.472656 -16.675781 5.75 -16.695312 C 3.128906 -16.742188 1.332031 -15.109375 1.332031 -12.71875 L 1.332031 -3.75 C 1.332031 -1.332031 3.128906 0.230469 5.820312 0.230469 Z M 5.820312 0.230469 "/></g></g></g><g fill="#ffffff" fill-opacity="1"><g transform="translate(90.242137, 101.812489)"><g><path d="M 8.507812 -16.488281 L 8.507812 -7.0625 L 8.695312 -3.933594 C 8.695312 -3.980469 8.257812 -6.09375 7.820312 -7.199219 L 4.140625 -16.488281 L 1.679688 -16.488281 L 1.679688 0 L 3.816406 0 L 3.816406 -9.867188 L 3.609375 -13.039062 C 3.632812 -12.996094 4.070312 -10.648438 4.601562 -9.429688 L 8.507812 0 L 10.671875 0 L 10.671875 -16.488281 Z M 8.507812 -16.488281 "/></g></g></g><g fill="#ffffff" fill-opacity="1"><g transform="translate(100.821094, 101.812489)"><g><path d="M 3.910156 -1.953125 L 3.910156 -7.542969 L 8.808594 -7.542969 L 8.808594 -9.5 L 3.910156 -9.5 L 3.910156 -14.535156 L 9.246094 -14.535156 L 9.246094 -16.488281 L 1.679688 -16.488281 L 1.679688 0 L 9.269531 0 L 9.269531 -1.953125 Z M 3.910156 -1.953125 "/></g></g></g><g fill="#ffffff" fill-opacity="1"><g transform="translate(109.077249, 101.812489)"><g><path d="M 9.914062 -16.488281 L 0.527344 -16.488281 L 0.527344 -14.535156 L 4.117188 -14.535156 L 4.117188 0 L 6.347656 0 L 6.347656 -14.535156 L 9.914062 -14.535156 Z M 9.914062 -16.488281 "/></g></g></g><g fill="#ffffff" fill-opacity="1"><g transform="translate(63.360808, 71.134534)"><g><path d="M 3.570312 -4.101562 L 4.144531 -4.757812 L -3.292969 -7.636719 L -3.875 -6.96875 L 0 0 L 0.574219 -0.660156 L -0.34375 -2.269531 L 1.847656 -4.785156 Z M -0.746094 -2.96875 L -2.863281 -6.683594 L 1.101562 -5.089844 Z M -0.746094 -2.96875 "/></g></g></g><g fill="#ffffff" fill-opacity="1"><g transform="translate(67.461759, 66.351174)"><g><path d="M 2.941406 -2.222656 C 4.222656 -3.242188 4.472656 -4.835938 3.550781 -5.988281 L 0.410156 -9.921875 L -0.214844 -9.421875 L 2.847656 -5.585938 C 3.527344 -4.734375 3.351562 -3.574219 2.445312 -2.847656 C 1.535156 -2.121094 0.371094 -2.214844 -0.304688 -3.066406 L -3.371094 -6.902344 L -3.996094 -6.40625 L -0.851562 -2.46875 C 0.0664062 -1.316406 1.671875 -1.207031 2.941406 -2.222656 Z M 2.941406 -2.222656 "/></g></g></g><g fill="#ffffff" fill-opacity="1"><g transform="translate(73.303294, 61.804897)"><g><path d="M 0.78125 -9.011719 L -3.542969 -6.609375 L -3.15625 -5.910156 L -1.34375 -6.917969 L 1.910156 -1.0625 L 2.609375 -1.449219 L -0.644531 -7.304688 L 1.167969 -8.3125 Z M 0.78125 -9.011719 "/></g></g></g><g fill="#ffffff" fill-opacity="1"><g transform="translate(77.800458, 59.193078)"><g><path d="M 3.027344 -9.015625 L 4.136719 -5.855469 L 0.238281 -4.480469 L -0.875 -7.640625 L -1.628906 -7.375 L 0.859375 -0.304688 L 1.613281 -0.570312 L 0.503906 -3.726562 L 4.402344 -5.101562 L 5.515625 -1.941406 L 6.269531 -2.207031 L 3.78125 -9.28125 Z M 3.027344 -9.015625 "/></g></g></g><g fill="#ffffff" fill-opacity="1"><g transform="translate(84.946625, 56.75632)"><g><path d="M 3.921875 -7.453125 L 3.796875 -8.21875 L -0.246094 -7.558594 L 0.960938 -0.15625 L 5.007812 -0.816406 L 4.882812 -1.582031 L 1.625 -1.050781 L 1.210938 -3.605469 L 4.046875 -4.066406 L 3.921875 -4.832031 L 1.085938 -4.367188 L 0.667969 -6.921875 Z M 3.921875 -7.453125 "/></g></g></g><g fill="#ffffff" fill-opacity="1"><g transform="translate(90.668691, 55.72011)"><g><path d="M 6.449219 -7.371094 L 6.324219 -1.210938 L 1.8125 -7.464844 L 1.0625 -7.476562 L 0.910156 0.0195312 L 1.710938 0.0351562 L 1.835938 -6.125 L 6.335938 0.128906 L 7.085938 0.140625 L 7.234375 -7.355469 Z M 6.449219 -7.371094 "/></g></g></g><g fill="#ffffff" fill-opacity="1"><g transform="translate(98.654756, 56.003278)"><g><path d="M 6.414062 -6.378906 L 1.558594 -7.335938 L 1.402344 -6.550781 L 3.4375 -6.152344 L 2.144531 0.421875 L 2.929688 0.578125 L 4.222656 -5.996094 L 6.257812 -5.597656 Z M 6.414062 -6.378906 "/></g></g></g><g fill="#ffffff" fill-opacity="1"><g transform="translate(103.893463, 57.110862)"><g><path d="M 0.929688 0.292969 L 1.691406 0.53125 L 3.9375 -6.625 L 3.171875 -6.863281 Z M 0.929688 0.292969 "/></g></g></g><g fill="#ffffff" fill-opacity="1"><g transform="translate(106.651939, 57.770821)"><g><path d="M 3.972656 2.03125 C 5.265625 2.660156 6.734375 2.496094 7.835938 1.738281 L 7.386719 1.089844 C 6.523438 1.699219 5.355469 1.8125 4.320312 1.3125 C 2.800781 0.578125 2.164062 -1.230469 2.902344 -2.757812 C 3.644531 -4.289062 5.457031 -4.910156 6.976562 -4.175781 C 8.011719 -3.675781 8.644531 -2.6875 8.703125 -1.632812 L 9.492188 -1.683594 C 9.402344 -3.015625 8.617188 -4.269531 7.324219 -4.894531 C 5.414062 -5.820312 3.109375 -5.019531 2.183594 -3.109375 C 1.257812 -1.195312 2.058594 1.109375 3.972656 2.03125 Z M 3.972656 2.03125 "/></g></g></g><g fill="#ffffff" fill-opacity="1"><g transform="translate(114.020447, 61.564852)"><g><path d="M 0.804688 0.546875 L 1.46875 1 L 5.6875 -5.199219 L 5.023438 -5.648438 Z M 0.804688 0.546875 "/></g></g></g><g fill="#ffffff" fill-opacity="1"><g transform="translate(116.46969, 63.165123)"><g><path d="M 8.71875 -2.414062 L 4.957031 -5.628906 L 4.4375 -5.019531 L 6.015625 -3.671875 L 1.664062 1.421875 L 2.269531 1.941406 L 6.621094 -3.152344 L 8.199219 -1.804688 Z M 8.71875 -2.414062 "/></g></g></g><g fill="#ffffff" fill-opacity="1"><g transform="translate(120.475563, 66.54952)"><g><path d="M 9.628906 -0.332031 L 8.980469 -1.078125 L 5.304688 -0.574219 L 6.332031 -4.140625 L 5.679688 -4.898438 L 4.410156 -0.328125 L 1.726562 1.992188 L 2.25 2.597656 L 4.941406 0.269531 Z M 9.628906 -0.332031 "/></g></g></g><g fill="#ffffff" fill-opacity="1"><g transform="translate(79.353217, 137.899391)"><g><path d="M 6.863281 -5.890625 L 2.089844 -7.203125 L 1.878906 -6.429688 L 3.878906 -5.882812 L 2.109375 0.578125 L 2.878906 0.789062 L 4.652344 -5.667969 L 6.652344 -5.121094 Z M 6.863281 -5.890625 "/></g></g></g><g fill="#ffffff" fill-opacity="1"><g transform="translate(85.286481, 139.49541)"><g><path d="M 5.398438 0.636719 L 6.265625 0.742188 L 4.453125 -7.023438 L 3.574219 -7.128906 L 0 0 L 0.867188 0.101562 L 1.683594 -1.5625 L 4.996094 -1.171875 Z M 2.03125 -2.289062 L 3.90625 -6.132812 L 4.824219 -1.960938 Z M 2.03125 -2.289062 "/></g></g></g><g fill="#ffffff" fill-opacity="1"><g transform="translate(92.671012, 140.388547)"><g><path d="M 4.160156 -4.3125 L 4.21875 -3.566406 L 7.222656 -3.800781 C 7.101562 -2.335938 5.9375 -1.167969 4.429688 -1.050781 C 2.75 -0.917969 1.285156 -2.15625 1.152344 -3.851562 C 1.019531 -5.546875 2.273438 -6.996094 3.953125 -7.128906 C 5.085938 -7.21875 6.132812 -6.6875 6.714844 -5.804688 L 7.371094 -6.242188 C 6.632812 -7.351562 5.324219 -8.039062 3.890625 -7.925781 C 1.761719 -7.757812 0.1875 -5.90625 0.355469 -3.789062 C 0.519531 -1.671875 2.363281 -0.0859375 4.492188 -0.253906 C 6.609375 -0.417969 8.195312 -2.273438 8.027344 -4.390625 L 8.011719 -4.613281 Z M 4.160156 -4.3125 "/></g></g></g><g fill="#ffffff" fill-opacity="1"><g transform="translate(102.671182, 139.340892)"><g><path d="M 2.726562 -0.632812 C 3.957031 -0.96875 4.761719 -1.972656 4.417969 -3.238281 C 3.753906 -5.703125 0.394531 -4.144531 -0.0742188 -5.871094 C -0.269531 -6.59375 0.226562 -7.105469 0.902344 -7.285156 C 1.457031 -7.4375 1.980469 -7.332031 2.378906 -7 L 2.84375 -7.667969 C 2.308594 -8.070312 1.503906 -8.277344 0.671875 -8.050781 C -0.4375 -7.753906 -1.148438 -6.785156 -0.828125 -5.601562 C -0.199219 -3.273438 3.167969 -4.804688 3.652344 -3.007812 C 3.863281 -2.234375 3.339844 -1.628906 2.53125 -1.410156 C 1.710938 -1.1875 1 -1.472656 0.566406 -2.070312 L -0.0234375 -1.46875 C 0.59375 -0.679688 1.65625 -0.34375 2.726562 -0.632812 Z M 2.726562 -0.632812 "/></g></g></g></svg>