<svg xmlns="http://www.w3.org/2000/svg" xmlns:xlink="http://www.w3.org/1999/xlink" width="210" zoomAndPan="magnify" viewBox="0 0 157.5 30.000001" height="40" preserveAspectRatio="xMidYMid meet" version="1.0"><defs><g><g id="id1"/><g id="id2"/></g><clipPath id="id3"><path d="M 3.027344 2.058594 L 43.796875 2.058594 L 43.796875 25 L 3.027344 25 Z M 3.027344 2.058594 " clip-rule="nonzero"/></clipPath></defs><path fill="rgb(0%, 63.139343%, 60.389709%)" d="M 23.414062 13.710938 C 21.03125 16.070312 21.03125 19.902344 23.414062 22.261719 C 25.792969 24.625 29.65625 24.625 32.035156 22.261719 L 40.65625 13.710938 C 43.039062 11.347656 43.039062 7.519531 40.65625 5.160156 C 38.277344 2.796875 34.417969 2.796875 32.035156 5.160156 Z M 23.414062 13.710938 " fill-opacity="1" fill-rule="nonzero"/><path fill="rgb(0%, 63.139343%, 60.389709%)" d="M 23.414062 13.710938 C 25.792969 11.347656 25.792969 7.519531 23.414062 5.160156 C 21.03125 2.796875 17.171875 2.796875 14.792969 5.160156 L 6.167969 13.710938 C 3.789062 16.070312 3.789062 19.902344 6.167969 22.261719 C 8.550781 24.625 12.410156 24.625 14.792969 22.261719 Z M 23.414062 13.710938 " fill-opacity="1" fill-rule="nonzero"/><path fill="rgb(100%, 70.199585%, 0%)" d="M 23.414062 22.261719 C 25.792969 24.625 29.65625 24.625 32.035156 22.261719 C 34.417969 19.902344 34.417969 16.070312 32.035156 13.710938 L 23.414062 5.160156 C 21.03125 2.796875 17.171875 2.796875 14.792969 5.160156 C 12.410156 7.519531 12.410156 11.347656 14.792969 13.710938 Z M 23.414062 22.261719 " fill-opacity="1" fill-rule="nonzero"/><path fill="rgb(93.728638%, 93.728638%, 93.728638%)" d="M 31.257812 22.058594 C 31.148438 22.148438 31.042969 22.238281 30.929688 22.320312 C 31.042969 22.238281 31.148438 22.148438 31.257812 22.058594 Z M 31.257812 22.058594 " fill-opacity="1" fill-rule="nonzero"/><path fill="rgb(93.728638%, 93.728638%, 93.728638%)" d="M 30.707031 22.472656 C 30.554688 22.570312 30.402344 22.660156 30.246094 22.742188 C 30.402344 22.660156 30.554688 22.570312 30.707031 22.472656 Z M 30.707031 22.472656 " fill-opacity="1" fill-rule="nonzero"/><path fill="rgb(93.728638%, 93.728638%, 93.728638%)" d="M 30.246094 22.742188 C 30.121094 22.808594 29.996094 22.863281 29.871094 22.917969 C 29.996094 22.863281 30.121094 22.808594 30.246094 22.742188 Z M 30.246094 22.742188 " fill-opacity="1" fill-rule="nonzero"/><path fill="rgb(93.728638%, 93.728638%, 93.728638%)" d="M 29.671875 23 C 29.390625 23.105469 29.101562 23.191406 28.804688 23.25 C 29.101562 23.191406 29.390625 23.105469 29.671875 23 Z M 29.671875 23 " fill-opacity="1" fill-rule="nonzero"/><path fill="rgb(93.728638%, 93.728638%, 93.728638%)" d="M 29.871094 22.917969 C 29.804688 22.945312 29.738281 22.972656 29.671875 23 C 29.738281 22.972656 29.804688 22.945312 29.871094 22.917969 Z M 29.871094 22.917969 " fill-opacity="1" fill-rule="nonzero"/><path fill="rgb(93.728638%, 93.728638%, 93.728638%)" d="M 31.554688 21.785156 C 31.460938 21.882812 31.359375 21.972656 31.257812 22.058594 C 31.359375 21.972656 31.457031 21.882812 31.554688 21.785156 Z M 31.554688 21.785156 " fill-opacity="1" fill-rule="nonzero"/><path fill="rgb(93.728638%, 93.728638%, 93.728638%)" d="M 28.804688 23.25 C 28.777344 23.253906 28.746094 23.261719 28.71875 23.265625 C 28.746094 23.261719 28.777344 23.253906 28.804688 23.25 Z M 28.804688 23.25 " fill-opacity="1" fill-rule="nonzero"/><g clip-path="url(#id3)"><path fill="rgb(93.728638%, 93.728638%, 93.728638%)" d="M 41.140625 4.683594 C 38.496094 2.0625 34.199219 2.0625 31.554688 4.683594 L 27.726562 8.480469 L 23.894531 4.683594 C 21.253906 2.0625 16.953125 2.0625 14.3125 4.683594 L 5.6875 13.234375 C 3.046875 15.855469 3.046875 20.117188 5.6875 22.738281 C 8.332031 25.359375 12.628906 25.359375 15.273438 22.738281 L 19.101562 18.9375 L 22.933594 22.738281 C 25.574219 25.359375 29.875 25.359375 32.515625 22.738281 L 41.140625 14.1875 C 43.78125 11.566406 43.78125 7.304688 41.140625 4.683594 Z M 14.3125 21.785156 C 12.199219 23.882812 8.761719 23.882812 6.652344 21.785156 C 4.539062 19.691406 4.539062 16.28125 6.652344 14.1875 L 12.398438 8.488281 C 12.109375 10.507812 12.746094 12.636719 14.3125 14.1875 L 18.140625 17.988281 Z M 31.554688 21.785156 C 31.460938 21.882812 31.359375 21.972656 31.257812 22.058594 C 31.152344 22.148438 31.042969 22.238281 30.929688 22.320312 C 30.855469 22.375 30.78125 22.425781 30.707031 22.472656 C 30.554688 22.570312 30.402344 22.664062 30.246094 22.742188 C 30.121094 22.808594 29.996094 22.867188 29.871094 22.917969 C 29.804688 22.945312 29.738281 22.972656 29.671875 23 C 29.390625 23.105469 29.101562 23.191406 28.804688 23.25 C 28.777344 23.253906 28.746094 23.261719 28.71875 23.265625 C 27.019531 23.578125 25.203125 23.085938 23.894531 21.785156 L 21.019531 18.933594 L 20.0625 17.988281 L 19.101562 17.035156 L 15.273438 13.234375 C 13.160156 11.136719 13.160156 7.730469 15.273438 5.636719 C 17.382812 3.539062 20.820312 3.539062 22.933594 5.636719 L 25.808594 8.488281 L 26.761719 9.433594 L 27.722656 10.386719 L 31.554688 14.1875 C 33.667969 16.28125 33.667969 19.691406 31.554688 21.785156 Z M 40.179688 13.234375 L 34.429688 18.933594 C 34.71875 16.914062 34.082031 14.785156 32.515625 13.234375 L 28.6875 9.433594 L 32.515625 5.636719 C 34.628906 3.542969 38.066406 3.542969 40.179688 5.636719 C 42.289062 7.730469 42.289062 11.140625 40.179688 13.234375 Z M 40.179688 13.234375 " fill-opacity="1" fill-rule="nonzero"/></g><g fill="rgb(0%, 63.139343%, 60.389709%)" fill-opacity="1"><g transform="translate(47.010608, 21.164972)"><g><path d="M 11.453125 -3.4375 L 11.453125 0 L 1.234375 0 L 1.234375 -14.328125 L 11.265625 -14.328125 L 11.265625 -10.90625 L 5.171875 -10.90625 L 5.171875 -8.875 L 10.375 -8.875 L 10.375 -5.6875 L 5.171875 -5.6875 L 5.171875 -3.4375 Z M 11.453125 -3.4375 "/></g></g></g><g fill="rgb(0%, 63.139343%, 60.389709%)" fill-opacity="1"><g transform="translate(60.896644, 21.164972)"><g><path d="M -0.15625 0 L 5.1875 -14.328125 L 8.375 -14.328125 L 13.703125 0 L 9.546875 0 L 8.6875 -2.8125 L 4.859375 -2.8125 L 4.015625 0 Z M 6.78125 -10.234375 L 5.453125 -5.4375 L 8.0625 -5.4375 Z M 6.78125 -10.234375 "/></g></g></g><g fill="rgb(0%, 63.139343%, 60.389709%)" fill-opacity="1"><g transform="translate(76.273268, 21.164972)"><g/></g></g><g fill="rgb(0%, 63.139343%, 60.389709%)" fill-opacity="1"><g transform="translate(82.651424, 21.164972)"><g/></g></g><g fill="rgb(0%, 63.139343%, 60.389709%)" fill-opacity="1"><g transform="translate(89.026043, 21.164972)"><g><path d="M 4 -14.328125 L 6.5625 -8.140625 L 9.1875 -14.328125 L 13.46875 -14.328125 L 8.515625 -4.75 L 8.515625 0 L 4.609375 0 L 4.609375 -4.78125 L -0.265625 -14.328125 Z M 4 -14.328125 "/></g></g></g><g fill="rgb(0%, 63.139343%, 60.389709%)" fill-opacity="1"><g transform="translate(104.022113, 21.164972)"><g/></g></g><g fill="rgb(0%, 63.139343%, 60.389709%)" fill-opacity="1"><g transform="translate(110.400269, 21.164972)"><g><path d="M 5.171875 -7.046875 L 5.171875 0 L 1.234375 0 L 1.234375 -14.328125 L 4.296875 -14.328125 L 10.046875 -7.046875 L 10.046875 -14.328125 L 13.984375 -14.328125 L 13.984375 0 L 10.859375 0 Z M 5.171875 -7.046875 "/></g></g></g><g fill="rgb(0%, 63.139343%, 60.389709%)" fill-opacity="1"><g transform="translate(127.454949, 21.164972)"><g><path d="M 1.234375 0 L 1.234375 -14.328125 L 11.0625 -14.328125 L 11.0625 -10.90625 L 5.171875 -10.90625 L 5.171875 -8.515625 L 9.96875 -8.515625 L 9.96875 -5.328125 L 5.171875 -5.328125 L 5.171875 0 Z M 1.234375 0 "/></g></g></g><g fill="rgb(0%, 63.139343%, 60.389709%)" fill-opacity="1"><g transform="translate(140.574049, 21.164972)"><g><path d="M 12.390625 -10.90625 L 8.28125 -10.90625 L 8.28125 0 L 4.34375 0 L 4.34375 -10.90625 L 0.203125 -10.90625 L 0.203125 -14.328125 L 12.390625 -14.328125 Z M 12.390625 -10.90625 "/></g></g></g><g fill="rgb(100%, 70.199585%, 0%)" fill-opacity="1"><g transform="translate(75.82012, 21.41628)"><g><path d="M 0.546875 -2.921875 L 7.25 -10.90625 L 0.84375 -10.90625 L 0.84375 -14.328125 L 11.796875 -14.328125 L 11.796875 -11.40625 L 5.484375 -3.4375 L 11.90625 -3.4375 L 11.90625 0 L 0.546875 0 Z M 0.546875 -2.921875 "/></g></g></g></svg>