<svg width="20" height="18" viewBox="0 0 20 18" fill="none" xmlns="http://www.w3.org/2000/svg">
<path d="M19.9807 2.46236C20.04 2.37307 19.9523 2.25777 19.8572 2.29749C19.1818 2.57978 18.476 2.77023 17.7559 2.86408C18.5576 2.34765 19.1763 1.5615 19.5194 0.630759C19.5543 0.535945 19.4583 0.451281 19.3754 0.5006C18.6303 0.944309 17.8266 1.26381 16.9919 1.44782C16.9569 1.45552 16.9209 1.4427 16.8964 1.41478C16.2699 0.702057 15.4453 0.227503 14.5463 0.0635139C13.6285 -0.103913 12.6851 0.0618668 11.864 0.534862C11.0429 1.00786 10.3906 1.76131 10.0096 2.67707C9.64714 3.54777 9.54942 4.51836 9.72814 5.45048C9.74199 5.52281 9.68949 5.59109 9.6211 5.58651C7.99693 5.47775 6.40997 5.01194 4.95805 4.21714C3.50982 3.42437 2.22738 2.3215 1.18883 0.976547C1.14274 0.916858 1.05538 0.924575 1.0218 0.993297C0.698634 1.65449 0.529429 2.39146 0.529891 3.14048C0.528578 3.88605 0.698275 4.62041 1.02387 5.27816C1.34945 5.93592 1.82083 6.49666 2.39604 6.91046C1.78603 6.89255 1.18791 6.72992 0.643962 6.43515C0.573858 6.39716 0.489769 6.45125 0.493419 6.53575C0.535838 7.51886 0.870565 8.5058 1.44996 9.26311C2.06653 10.0688 2.92231 10.6203 3.87255 10.8242C3.50677 10.9442 3.12699 11.0075 2.74466 11.0121C2.53657 11.0095 2.3289 10.993 2.12282 10.9626C2.04641 10.9513 1.98402 11.0296 2.01077 11.1075C2.29419 11.9339 2.7949 12.6551 3.45326 13.1815C4.15712 13.7442 5.00616 14.0564 5.88225 14.0745C4.40287 15.3297 2.57638 16.0147 0.693948 16.0203C0.500525 16.021 0.307183 16.0143 0.114293 16.0001C0.00559541 15.9921 -0.0443907 16.1483 0.0492961 16.2082C1.88342 17.3818 3.97979 18.0021 6.11808 17.9993C7.69681 18.017 9.26294 17.6953 10.7251 17.0531C12.1873 16.4107 13.516 15.4608 14.6339 14.2586C15.7517 13.0564 16.6362 11.6262 17.2356 10.0513C17.835 8.47639 18.1374 6.78852 18.125 5.08628V4.55579C18.125 4.52089 18.1403 4.48806 18.1661 4.46702C18.8616 3.90082 19.4732 3.22484 19.9807 2.46236Z" fill="white"/>
</svg>
