<svg width="23" height="19" viewBox="0 0 23 19" fill="none" xmlns="http://www.w3.org/2000/svg">
<path fill-rule="evenodd" clip-rule="evenodd" d="M15.7024 17.2267C16.2648 18.036 16.9397 18.9765 16.9397 18.9765C20.865 18.8315 22.485 15.9968 22.6445 15.7175C22.6533 15.702 22.6577 15.6944 22.6577 15.6956C22.6577 8.71798 19.958 3.05285 19.958 3.05285C17.2771 0.712407 14.7088 0.778017 14.7088 0.778017L14.4462 1.128C17.6333 2.24353 19.1144 3.88402 19.1144 3.88402C17.1646 2.65913 15.2525 2.04667 13.4714 1.80607C12.1216 1.63107 10.828 1.67483 9.68439 1.84981C9.5862 1.84981 9.50229 1.86649 9.40772 1.88526C9.39396 1.888 9.37997 1.89078 9.36569 1.89356C8.70952 1.98105 7.11597 2.24353 5.10998 3.27157C4.41633 3.62155 4.00388 3.88402 4.00388 3.88402C4.00388 3.88402 5.54118 2.15604 8.91574 1.0405L8.72827 0.778017C8.72827 0.778017 6.1786 0.712407 3.47894 3.05285C3.47894 3.05285 0.779297 8.71798 0.779297 15.6956C0.779297 15.6956 2.3541 18.8453 6.49731 18.9985C6.49731 18.9985 7.19097 18.036 7.75339 17.2049C5.37245 16.3736 4.47257 14.6457 4.47257 14.6457C4.47257 14.6457 4.66004 14.7988 4.99751 15.0175C5.00909 15.0175 5.02068 15.0259 5.03669 15.0374C5.04658 15.0445 5.05817 15.0528 5.07249 15.0612C5.10061 15.0832 5.12874 15.0995 5.15686 15.116C5.18497 15.1324 5.2131 15.1487 5.24122 15.1707C5.70991 15.4769 6.1786 15.7174 6.6098 15.9143C7.37844 16.2861 8.29708 16.6143 9.36569 16.8548C10.7718 17.1611 12.4215 17.2704 14.2213 16.8767C15.1024 16.6798 16.0023 16.3955 16.9397 15.9362C17.5958 15.6519 18.327 15.2362 19.0957 14.6457C19.0957 14.6457 18.1583 16.4175 15.7024 17.2267ZM13.1526 11.2553C13.1526 9.92106 13.9962 8.84929 15.0648 8.84929C16.1147 8.84929 16.9771 9.92106 16.9771 11.2553C16.9771 12.5896 16.1335 13.6614 15.0648 13.6614C14.0149 13.6614 13.1526 12.5896 13.1526 11.2553ZM6.30973 11.2553C6.30973 9.92106 7.15337 8.84929 8.22199 8.84929C9.2906 8.84929 10.153 9.92106 10.1342 11.2553C10.1342 12.5896 9.2906 13.6614 8.22199 13.6614C7.17212 13.6614 6.30973 12.5896 6.30973 11.2553Z" fill="white"/>
</svg>
