<svg width="21" height="19" viewBox="0 0 21 19" fill="none" xmlns="http://www.w3.org/2000/svg">
<path d="M20.6496 3.27038C20.7086 3.17999 20.6214 3.06328 20.5268 3.10349C19.8552 3.38923 19.1532 3.58203 18.4371 3.67703C19.2344 3.15426 19.8497 2.35848 20.1908 1.41632C20.2256 1.32035 20.1301 1.23465 20.0477 1.28457C19.3067 1.73372 18.5074 2.05713 17.6773 2.2434C17.6425 2.2512 17.6067 2.23822 17.5824 2.20996C16.9593 1.4885 16.1393 1.00812 15.2452 0.842125C14.3325 0.672645 13.3943 0.840457 12.5777 1.31925C11.7612 1.79804 11.1125 2.56074 10.7336 3.48772C10.3732 4.36909 10.276 5.35158 10.4537 6.29513C10.4675 6.36835 10.4153 6.43746 10.3472 6.43283C8.73206 6.32273 7.15386 5.85121 5.70996 5.04668C4.26973 4.24419 2.99437 3.1278 1.96156 1.76635C1.91572 1.70593 1.82884 1.71374 1.79545 1.78331C1.47407 2.45261 1.3058 3.19861 1.30626 3.95681C1.30496 4.71152 1.47371 5.45489 1.79751 6.1207C2.12129 6.78652 2.59007 7.35414 3.1621 7.77301C2.55547 7.75488 1.96065 7.59026 1.4197 7.29187C1.34999 7.25342 1.26636 7.30817 1.26999 7.39371C1.31217 8.38887 1.64505 9.38791 2.22125 10.1545C2.83441 10.9701 3.68547 11.5283 4.63046 11.7347C4.26669 11.8562 3.88902 11.9203 3.5088 11.925C3.30186 11.9223 3.09533 11.9056 2.89039 11.8748C2.81441 11.8634 2.75236 11.9426 2.77896 12.0215C3.06081 12.8581 3.55876 13.5881 4.21349 14.1209C4.91345 14.6905 5.75781 15.0066 6.62905 15.0249C5.15784 16.2955 3.34144 16.9889 1.46941 16.9946C1.27706 16.9952 1.08478 16.9884 0.892959 16.9741C0.784861 16.966 0.735151 17.1241 0.828321 17.1847C2.65232 18.3728 4.73711 19.0006 6.86358 18.9978C8.43359 19.0157 9.99107 18.69 11.4452 18.0399C12.8992 17.3897 14.2207 16.4282 15.3323 15.2113C16.444 13.9943 17.3236 12.5465 17.9197 10.9523C18.5158 9.35814 18.8165 7.64957 18.8042 5.92646V5.38947C18.8042 5.35414 18.8194 5.32092 18.8451 5.29962C19.5367 4.72647 20.145 4.04221 20.6496 3.27038Z" fill="white"/>
</svg>
