<svg width="183" height="84" viewBox="0 0 183 84" fill="none" xmlns="http://www.w3.org/2000/svg">
<path fill-rule="evenodd" clip-rule="evenodd" d="M76.8141 4.75242C75.3756 4.92076 73.9453 5.18798 72.5073 5.35639L68.2039 6.00976C65.3396 6.49473 62.5143 6.97508 59.6494 7.46006C55.5935 8.18415 51.5855 9.00239 47.5485 9.97347C42.7203 11.1368 37.9072 12.4979 33.2042 14.2446C30.4209 15.2682 27.7288 16.4308 25.0443 17.6921L23.2197 18.6034L22.2874 19.0615L21.3989 19.5642L19.5819 20.5743L17.8086 21.6292C15.4188 23.0553 13.1678 24.7143 11.0556 26.6062C9.13171 28.3267 7.27429 30.3881 5.86388 32.497C4.88744 33.9569 3.96229 35.5603 3.252 37.338C2.58167 39.111 2.0787 40.964 1.86294 42.8831L1.73296 44.3435C1.6909 44.8468 1.72873 45.3407 1.72283 45.7899C1.75855 46.7826 1.83421 47.7705 1.98599 48.6995C2.29333 50.6072 2.84035 52.4866 3.57956 54.2444C4.21614 55.7146 5.01633 57.216 5.83375 58.4155C8.33356 62.11 11.6117 64.9157 15.2078 67.1356C15.7574 67.4705 16.4743 67.8849 16.8965 68.1341C18.3666 68.909 19.9565 69.6695 21.5826 70.3762C23.2086 71.0829 24.9107 71.7309 26.5331 72.3885C27.1987 72.6592 27.8606 72.8807 28.5224 73.1022C29.1843 73.3238 29.85 73.5945 30.5119 73.8161C31.8393 74.3084 33.1593 74.7025 34.4393 75.1007C35.1411 75.3175 35.8429 75.5343 36.5448 75.7511C37.2466 75.9679 37.9845 76.1307 38.6863 76.3476C40.1261 76.7273 41.566 77.1069 43.0019 77.437C43.66 77.6094 44.358 77.7766 45.096 77.9393C45.834 78.1023 46.572 78.2652 47.3499 78.4226C48.862 78.6946 50.4177 79.0108 51.926 79.2329C53.5582 79.4899 55.19 79.7474 56.7781 79.96C58.9374 80.2559 61.0559 80.5559 63.2036 80.7032C64.2613 80.8284 65.3148 80.9044 66.4124 81.0249C67.4662 81.1008 68.5599 81.1722 69.6139 81.2482C71.6413 81.4093 73.7051 81.5164 75.7292 81.6285C77.7533 81.7404 79.697 81.8614 81.4813 82.0015C83.1416 82.1063 85.4854 82.1806 87.6213 82.1795C88.1048 82.1728 88.5077 82.1752 88.991 82.1687C93.634 82.2729 98.3137 82.3232 102.989 82.3238C108.635 82.3603 114.281 82.3968 119.871 82.2405C126.526 81.9153 134.354 81.4973 142.268 80.62C142.906 80.5451 143.585 80.4661 144.145 80.4002C145.064 80.293 145.983 80.1852 146.821 80.087C147.657 79.939 148.415 79.8504 149.131 79.7168C150.481 79.4588 151.876 79.2462 153.346 78.9743C155.892 78.5263 158.466 77.9262 160.916 77.2902C164.861 76.1805 168.765 74.5271 172.158 71.9866C172.463 71.7519 172.766 71.517 173.031 71.2865C173.337 71.0517 173.6 70.8212 173.861 70.5415C174.086 70.3157 174.31 70.09 174.539 69.9139C174.763 69.6881 174.948 69.4672 175.172 69.2419C175.397 69.0162 175.618 68.7413 175.839 68.4658C176.059 68.191 176.317 67.8616 176.573 67.5328C176.718 67.3165 176.902 67.0955 177.083 66.8248C177.264 66.5547 177.481 66.2302 177.697 65.9056C177.915 65.5816 178.128 65.2079 178.341 64.8336C178.555 64.4599 178.728 64.0911 178.905 63.7713C179.461 62.6095 180.012 61.3984 180.361 60.1619C180.75 58.9203 181.051 57.5891 181.184 56.1781C181.344 54.5647 181.371 52.8172 181.122 51.1517C180.914 49.4818 180.466 47.8398 179.993 46.4001C178.707 42.7631 176.747 39.803 174.565 37.118C171.985 33.9317 168.935 30.9497 165.938 28.6594C165.467 28.3156 164.696 27.7083 164.139 27.2752C162.515 26.0699 160.858 24.9681 159.21 23.9651C158.532 23.5459 157.943 23.2163 157.477 22.9219C156.8 22.5029 156.214 22.2226 155.581 21.8483C154.155 21.1182 153.94 20.944 154.765 21.1962C155.551 21.4531 157.424 22.2304 159.953 23.6787C161.81 24.7571 163.891 26.1578 165.52 27.4125C168.826 30.0653 171.733 32.765 174.527 36.076C176.43 38.2951 178.334 41.0624 179.639 43.8997C180.32 45.4148 180.888 47.0427 181.304 48.7883C181.72 50.5337 181.944 52.401 181.88 54.203C181.845 55.8517 181.574 57.5776 181.204 59.0664C180.713 61.0673 180.096 62.4855 179.363 63.9665C178.275 66.0877 176.858 68.0975 175.33 69.7217C173.581 71.6207 171.526 73.2071 169.477 74.3444C169.284 74.4666 168.972 74.6025 168.78 74.7246C167.08 75.6715 165.167 76.4931 163.244 77.1669C161.317 77.7915 159.342 78.3215 157.4 78.7485C156.213 79.0371 154.982 79.2809 153.751 79.5246C153.155 79.6444 152.52 79.7684 151.925 79.8881C151.329 80.0073 150.69 80.0822 150.094 80.2019C147.03 80.7104 144.397 81.0685 141.561 81.4009C137.646 81.8591 133.6 82.183 129.583 82.3549C126.372 82.5315 124.141 82.7375 120.919 82.7657C116.651 82.8169 112.379 82.819 108.145 82.8161C105 82.7861 101.853 82.7555 98.707 82.7256C98.1001 82.6968 97.4574 82.722 96.8907 82.6891C92.2473 82.5849 87.5245 82.4902 82.7173 82.3549C76.2141 82.1699 69.6593 81.8411 63.158 81.1571C62.0203 81.041 60.8031 80.9344 59.8253 80.7996C56.7801 80.5086 53.4764 79.9983 50.2923 79.4737C49.0674 79.2683 47.5514 78.9473 46.3626 78.688C44.9265 78.358 43.5305 78.0232 42.0944 77.6927C40.6585 77.3627 39.2149 76.9332 37.6952 76.5632C37.2844 76.462 36.8336 76.365 36.3791 76.2189C35.9245 76.0728 35.5137 75.9715 35.059 75.8254C34.1538 75.5828 33.2446 75.2906 32.2919 74.9534C32.1682 74.9181 31.9609 74.8426 31.7136 74.772C31.4664 74.7013 31.2153 74.5809 30.968 74.5103C30.1826 74.2533 29.3533 73.9521 28.5679 73.6952C27.7824 73.4382 26.9569 73.1861 26.1639 72.8304C25.3746 72.5238 24.5415 72.1728 23.7124 71.8716C22.8793 71.5207 22.0064 71.1739 21.0897 70.7829C19.7109 70.1469 17.7901 69.2755 16.3562 68.4466C15.0497 67.7028 13.4409 66.6949 12.1117 65.6546C11.2123 64.9624 9.66818 63.7478 8.5274 62.5358C7.35043 61.3781 6.28197 60.0576 5.32578 58.6244C4.27837 57.053 3.42312 55.3588 2.72006 53.5473C2.01702 51.7362 1.50617 49.8023 1.27116 47.7864C1.06642 46.1658 1.06141 44.5218 1.22377 42.9578C1.23345 42.5581 1.32303 42.1488 1.37265 41.7443C1.42229 41.3398 1.51187 40.9306 1.56528 40.5756L1.87774 39.3927L2.03587 38.826L2.23394 38.2546C3.37487 34.732 5.31643 31.664 7.53923 29.1112C9.42527 26.8968 11.5413 25.0542 13.7485 23.3506C14.8541 22.5234 16.0033 21.741 17.1601 21.0573C18.317 20.3736 19.47 19.6405 20.6706 19.0015C21.8673 18.3132 23.1116 17.7189 24.3521 17.0753C24.9724 16.7535 25.5964 16.4812 26.2205 16.2087C26.8444 15.9363 27.4648 15.6144 28.0925 15.3914C32.6206 13.4658 37.2512 11.8271 41.9483 10.5295C42.8157 10.2785 43.6471 10.0815 44.5146 9.83034C45.3859 9.62864 46.2134 9.3822 47.0845 9.1805C48.7875 8.78183 50.61 8.36902 52.1963 8.03378C54.8142 7.47802 57.5551 6.95772 60.1807 6.50078C64.676 5.72523 69.1349 5.00371 73.9531 4.24015C75.3838 3.97292 76.7822 3.80925 78.2163 3.59145C79.8655 3.54785 81.3001 3.33004 82.7382 3.16163C84.1761 2.99322 85.6142 2.82482 87.0925 2.65175L89.2497 2.39914L91.4104 2.19595C92.9723 2.06287 94.5339 1.92987 96.096 1.79679C97.6613 1.71319 99.2267 1.62952 100.793 1.54587C101.476 1.51575 102.114 1.44088 102.797 1.41076C103.48 1.38064 104.123 1.35519 104.806 1.32507C107.302 1.282 109.79 1.14019 112.293 1.19588C113.259 1.18311 114.23 1.21834 115.156 1.20954C116.122 1.19606 117.052 1.23667 118.023 1.27254C119.923 1.34907 121.864 1.42089 123.851 1.58683C125.435 1.75014 126.98 1.91819 128.564 2.0815C129.338 2.1902 130.145 2.19541 130.923 2.35351L133.285 2.67492L135.647 2.99635C136.422 3.10504 137.236 3.20906 137.973 3.37184C139.529 3.68805 141.085 4.00419 142.641 4.3204C144.153 4.59186 145.597 5.02084 147.077 5.39579L149.298 5.98287C150.04 6.19505 150.778 6.35783 151.524 6.61935C152.142 6.7962 152.804 7.01772 153.342 7.20386C154.207 7.45138 155.076 7.7483 155.981 7.99114C156.436 8.13726 156.851 8.28806 157.301 8.38478C157.756 8.53091 158.174 8.73111 158.629 8.87723C160.375 9.56983 162.157 10.2084 163.903 10.901C165.616 11.6971 167.414 12.5333 169.003 13.294C170.509 14.0146 170.681 14.1442 169.601 13.7224C168.481 13.3054 167.396 12.8343 165.181 11.7979C163.842 11.1573 162.434 10.6743 161.063 10.1371C159.656 9.65403 158.281 9.06749 156.878 8.63385C155.557 8.24021 154.154 7.80651 152.71 7.37747C152.009 7.16068 151.267 6.9485 150.565 6.73164C149.827 6.56887 149.128 6.40142 148.386 6.18925C147.114 5.88974 145.799 5.54545 144.486 5.25062C143.828 5.07851 143.174 4.95574 142.519 4.83304C141.865 4.71033 141.211 4.58756 140.516 4.46952C139.862 4.34681 139.168 4.22871 138.513 4.106C137.859 3.98329 137.161 3.81584 136.51 3.74248C135.166 3.55108 133.821 3.35968 132.476 3.16833C131.662 3.06432 130.844 2.91088 130.034 2.85627C129.224 2.80164 128.409 2.69763 127.599 2.643C118.871 1.82112 109.959 1.76829 101.009 2.26805C99.3633 2.36106 97.6783 2.45873 96.0727 2.54707C94.7107 2.65671 93.3526 2.81578 91.9907 2.92543C90.6282 3.03509 89.2662 3.14474 87.9119 3.35315C86.8333 3.47945 85.7547 3.60576 84.676 3.73206C82.0359 3.99143 79.3667 4.40364 76.7342 4.76177L76.8141 4.75242Z" fill="url(#paint0_linear_2_338)" stroke="url(#paint1_linear_2_338)" stroke-width="2"/>
<defs>
<linearGradient id="paint0_linear_2_338" x1="72.2129" y1="120.972" x2="147.372" y2="-13.5076" gradientUnits="userSpaceOnUse">
<stop stop-color="#9358F7"/>
<stop offset="0.0666667" stop-color="#9259F7"/>
<stop offset="0.133333" stop-color="#8E5DF6"/>
<stop offset="0.2" stop-color="#8862F5"/>
<stop offset="0.266667" stop-color="#806BF4"/>
<stop offset="0.333333" stop-color="#7575F2"/>
<stop offset="0.4" stop-color="#6882F0"/>
<stop offset="0.466667" stop-color="#5990EE"/>
<stop offset="0.533333" stop-color="#4A9FEB"/>
<stop offset="0.6" stop-color="#3BADE9"/>
<stop offset="0.666667" stop-color="#2EBAE7"/>
<stop offset="0.733333" stop-color="#23C4E5"/>
<stop offset="0.8" stop-color="#1BCDE4"/>
<stop offset="0.866667" stop-color="#15D2E3"/>
<stop offset="0.933333" stop-color="#11D6E2"/>
<stop offset="1" stop-color="#10D7E2"/>
</linearGradient>
<linearGradient id="paint1_linear_2_338" x1="72.2129" y1="120.972" x2="147.372" y2="-13.5076" gradientUnits="userSpaceOnUse">
<stop stop-color="#9358F7"/>
<stop offset="0.0666667" stop-color="#9259F7"/>
<stop offset="0.133333" stop-color="#8E5DF6"/>
<stop offset="0.2" stop-color="#8862F5"/>
<stop offset="0.266667" stop-color="#806BF4"/>
<stop offset="0.333333" stop-color="#7575F2"/>
<stop offset="0.4" stop-color="#6882F0"/>
<stop offset="0.466667" stop-color="#5990EE"/>
<stop offset="0.533333" stop-color="#4A9FEB"/>
<stop offset="0.6" stop-color="#3BADE9"/>
<stop offset="0.666667" stop-color="#2EBAE7"/>
<stop offset="0.733333" stop-color="#23C4E5"/>
<stop offset="0.8" stop-color="#1BCDE4"/>
<stop offset="0.866667" stop-color="#15D2E3"/>
<stop offset="0.933333" stop-color="#11D6E2"/>
<stop offset="1" stop-color="#10D7E2"/>
</linearGradient>
</defs>
</svg>
