<svg width="347" height="19" viewBox="0 0 347 19" fill="none" xmlns="http://www.w3.org/2000/svg">
<g clip-path="url(#clip0_84_141)">
<path d="M77.5456 3.42211C79.2324 2.38616 81.1055 1.48656 83.1768 1.28187C84.2144 1.17844 85.2687 1.28564 86.2645 1.53859C87.2655 1.79092 88.2247 2.18086 89.1453 2.6388C90.9844 3.56317 92.6753 4.74174 94.3069 5.87454C95.9365 7.01049 97.5083 8.12261 99.0455 8.973C99.8709 9.42969 100.889 10.0306 101.917 10.4732C102.947 10.9383 103.981 11.2101 104.856 11.2587C106.176 11.3311 107.606 10.8869 109.063 10.139C110.523 9.39428 112.005 8.35958 113.52 7.24463C115.037 6.13158 116.587 4.9251 118.247 3.82113C119.907 2.72594 121.684 1.69908 123.666 1.17687C123.964 1.11262 124.262 1.02892 124.574 0.998519L125.039 0.940215C125.196 0.927051 125.353 0.925166 125.509 0.917956C126.133 0.886611 126.743 0.949933 127.289 1.0051C128.685 1.17311 130.015 1.64924 131.259 2.26798C132.504 2.89049 133.683 3.63996 134.81 4.43299C137.065 6.01622 139.159 7.7518 141.24 9.11217C143.312 10.465 145.378 11.4392 147.318 11.2869C149.296 11.1496 151.393 9.99359 153.466 8.50189C154.933 7.45245 156.418 6.25852 157.963 5.09594C159.506 3.93241 161.12 2.78455 162.875 1.88275C163.753 1.43484 164.669 1.05275 165.627 0.797284C166.581 0.541195 167.593 0.419258 168.596 0.48853C170.597 0.627075 172.452 1.40004 174.18 2.30309C176.097 3.30896 178.016 4.74206 179.896 6.14567C181.773 7.5493 183.632 8.91533 185.398 9.75568C186.728 10.3788 188.025 10.7474 189.264 10.6374C190.525 10.5359 191.852 10.0356 193.191 9.27735C194.532 8.52633 195.884 7.55275 197.26 6.51493C198.638 5.47835 200.039 4.37093 201.519 3.33967C202.997 2.31094 204.557 1.34143 206.262 0.696346C207.115 0.377255 207.999 0.130254 208.917 0.0421746C209.836 -0.0518605 210.772 0.0149047 211.662 0.20705C213.451 0.588204 215.087 1.4361 216.616 2.39024C218.148 3.35064 219.58 4.44459 220.978 5.50719C222.715 6.83965 224.278 8.02043 225.456 8.88304C226.63 9.75161 227.422 10.3434 227.561 10.8512C227.637 11.148 228.383 11.6759 229.153 12.0843C229.536 12.2946 229.925 12.4592 230.229 12.6228C230.533 12.7651 230.753 12.9162 230.79 13.0764C230.887 13.4911 230.64 13.8876 230.003 14.1941C229.369 14.4903 228.337 14.6289 227 14.3477C225.661 14.0835 224.038 13.3826 222.234 12.2959C220.428 11.222 218.442 9.74408 216.252 8.30723C214.297 7.04183 212.322 5.9924 210.427 5.81436C209.49 5.72032 208.551 5.87736 207.581 6.1977C206.615 6.53498 205.639 7.04559 204.666 7.65588C202.803 8.83258 200.954 10.3738 199.027 11.8865C197.098 13.3955 195.076 14.927 192.784 15.9391C191.642 16.4453 190.416 16.7801 189.148 16.84C187.872 16.9064 186.623 16.6391 185.453 16.2027C183.1 15.3219 181.037 13.8033 179.079 12.2501C177.684 11.1364 176.167 9.93184 174.616 8.88053C173.068 7.82859 171.479 6.94467 169.999 6.51147C169.473 6.35789 168.952 6.25915 168.44 6.21307C167.929 6.18987 167.429 6.18486 166.916 6.28829C166.788 6.30302 166.66 6.33092 166.531 6.36447L166.143 6.45757C165.884 6.54377 165.625 6.60832 165.364 6.71804C164.844 6.90392 164.319 7.16502 163.794 7.43552C161.689 8.56896 159.592 10.2359 157.414 11.8793C155.231 13.5121 152.954 15.2066 150.362 16.1856C149.719 16.4381 149.045 16.6043 148.368 16.733C147.685 16.8365 146.985 16.885 146.291 16.8237C145.601 16.7601 144.918 16.6341 144.262 16.4225C143.6 16.2269 142.964 15.9573 142.341 15.6601C140.75 14.8903 139.256 13.8487 137.823 12.7958C136.391 11.7383 135.016 10.6615 133.681 9.74032C131.921 8.52726 130.171 7.43583 128.438 6.85031C127.573 6.55818 126.717 6.39769 125.885 6.41274C125.053 6.43624 124.202 6.63811 123.346 6.96975C121.63 7.63551 119.906 8.80687 118.167 10.1083C116.425 11.412 114.663 12.8651 112.776 14.176C110.985 15.4115 109.102 16.5438 107.007 17.0632C105.966 17.3215 104.857 17.3973 103.78 17.2393C102.703 17.0873 101.662 16.7366 100.662 16.2675C98.5918 15.2946 96.6436 13.9149 94.7386 12.5441C92.8362 11.1693 90.9771 9.77198 89.1539 8.68932C88.5519 8.3345 87.9506 8.01948 87.3513 7.74709C86.7527 7.4885 86.1567 7.28067 85.5667 7.1368C84.976 7.00265 84.3967 6.94654 83.8247 6.96253C83.2539 6.97632 82.6706 7.10327 82.0853 7.27379C80.9126 7.62986 79.7246 8.26899 78.5373 9.04259C77.3493 9.81713 76.1594 10.7302 74.9508 11.674C73.7388 12.62 72.5103 13.602 71.2199 14.5239C70.576 14.9853 69.9175 15.4323 69.2364 15.8428C68.5579 16.2585 67.8562 16.6378 67.1285 16.9587C66.4045 17.2857 65.6508 17.5506 64.8716 17.7186C64.097 17.8916 63.2879 17.9784 62.4845 17.9185C60.8767 17.8251 59.3598 17.2643 57.9507 16.535C56.2917 15.7692 54.7365 14.7527 53.242 13.6967C51.745 12.6404 50.301 11.5398 48.8674 10.5581C47.4357 9.57356 46.012 8.7191 44.6081 8.19063C43.9071 7.92952 43.2126 7.74803 42.5355 7.69381C41.862 7.63583 41.1948 7.69882 40.5031 7.86903C39.1239 8.20974 37.7074 8.9589 36.2929 9.90709C34.8753 10.8565 33.4584 11.984 32.0054 13.1391C30.5525 14.2916 29.0641 15.4758 27.4676 16.515C25.8769 17.5524 24.1531 18.4508 22.2637 18.8344C21.0931 19.0743 19.7949 19.0576 18.5626 18.7577C17.3225 18.4656 16.1139 17.948 14.955 17.3124C12.6433 16.0235 10.5156 14.2985 8.50545 12.6874C6.1563 10.7791 4.39228 9.56636 3.07344 8.8868C1.7579 8.18624 0.909991 7.97623 0.43987 7.74929C-0.0265382 7.55056 -0.120523 7.32331 0.150706 7.04966C0.421318 6.77289 1.06621 6.43029 2.09898 6.26605C2.22244 6.25006 2.35104 6.23376 2.48398 6.21653C2.61753 6.20525 2.75522 6.20555 2.89846 6.20241C3.18577 6.19113 3.48852 6.22153 3.80962 6.25099C4.44772 6.3325 5.1495 6.48013 5.87992 6.71616C6.91579 7.04027 8.02833 7.57846 9.38938 8.41348C10.0691 8.83195 10.8111 9.32532 11.6386 9.89297C12.4665 10.4587 13.3795 11.1007 14.4125 11.7677C15.8513 12.7002 17.3146 13.4638 18.781 13.8487C19.5131 14.0384 20.245 14.1396 20.9618 14.0985C21.6789 14.0597 22.395 13.8957 23.104 13.639C24.5237 13.129 25.9055 12.2442 27.2599 11.2345C28.616 10.2227 29.9474 9.07205 31.3034 7.92922C32.3887 7.01174 33.4835 6.09867 34.6274 5.25016C35.77 4.40102 36.9751 3.62742 38.2774 3.02998C38.9335 2.74475 39.6099 2.49493 40.3185 2.33537C41.0258 2.18837 41.7645 2.08587 42.5095 2.13634C43.9972 2.20686 45.4554 2.6927 46.8486 3.41083C48.8614 4.44019 50.8972 5.80559 52.7322 7.08572C54.827 8.54733 56.8555 10.024 58.8719 11.012C59.8783 11.5113 60.8759 11.8527 61.8466 12.0116C62.3314 12.0683 62.8046 12.1131 63.2786 12.058C63.5144 12.0527 63.7567 11.9931 63.9967 11.9605C64.2393 11.9006 64.4814 11.8549 64.7271 11.7737C65.7081 11.4734 66.7128 10.9863 67.7291 10.3628C68.7462 9.74659 69.7745 9.01438 70.8235 8.2273C72.9247 6.66662 75.0924 4.87057 77.5456 3.42211Z" fill="url(#paint0_linear_84_141)"/>
</g>
<defs>
<linearGradient id="paint0_linear_84_141" x1="-115.405" y1="9.5" x2="-112.298" y2="47.2442" gradientUnits="userSpaceOnUse">
<stop stop-color="#01DCBA"/>
<stop offset="1" stop-color="#7F30CB"/>
</linearGradient>
<clipPath id="clip0_84_141">
<rect width="347" height="19" fill="white"/>
</clipPath>
</defs>
</svg>
