<svg width="189" height="37" viewBox="0 0 189 37" fill="none" xmlns="http://www.w3.org/2000/svg">
<path d="M39.4255 3.6333C36.3942 2.2347 33.1748 1.2154 29.8145 0.646484C29.3915 1.38134 28.9215 2.37692 28.5925 3.1592C25.0184 2.63767 21.47 2.63767 17.9452 3.1592C17.6162 2.37692 17.1227 1.38134 16.7232 0.646484C13.3394 1.2154 10.1201 2.2347 7.10985 3.6333C1.02366 12.6885 -0.62127 21.5303 0.201191 30.2536C4.24299 33.2167 8.14384 35.0183 11.9765 36.2036C12.9165 34.9235 13.7624 33.5486 14.4909 32.1027C13.1045 31.5811 11.7885 30.9411 10.5196 30.1825C10.8486 29.9456 11.1776 29.6848 11.4831 29.4241C19.1437 32.9561 27.4411 32.9561 35.0077 29.4241C35.3367 29.6848 35.6422 29.9456 35.9712 30.1825C34.7022 30.9411 33.3863 31.5811 31.9998 32.1027C32.7283 33.5486 33.5743 34.9235 34.5142 36.2036C38.3445 35.0183 42.2689 33.2167 46.2895 30.2536C47.2999 20.1555 44.6892 11.3848 39.4255 3.6333ZM15.5483 24.8727C13.2454 24.8727 11.3655 22.763 11.3655 20.1792C11.3655 17.5954 13.1984 15.4856 15.5483 15.4856C17.8747 15.4856 19.778 17.5954 19.731 20.1792C19.731 22.763 17.8747 24.8727 15.5483 24.8727ZM30.9895 24.8727C28.6865 24.8727 26.8042 22.763 26.8042 20.1792C26.8042 17.5954 28.6395 15.4856 30.9895 15.4856C33.3158 15.4856 35.2192 17.5954 35.1722 20.1792C35.1722 22.763 33.3393 24.8727 30.9895 24.8727Z" fill="#5865F2"/>
<path d="M62.5742 8.08984H72.5637C74.9605 8.08984 77.0049 8.46914 78.6734 9.22764C80.3417 9.98624 81.5872 11.0293 82.4097 12.3804C83.2321 13.7316 83.6551 15.2723 83.6551 17.0266C83.6551 18.7333 83.2322 20.2741 82.3627 21.6726C81.4932 23.0476 80.1774 24.1616 78.4149 24.9676C76.6525 25.7736 74.467 26.1766 71.8587 26.1766H62.5742V8.08984ZM71.7412 21.5778C73.3625 21.5778 74.608 21.1748 75.4775 20.3453C76.347 19.5392 76.7935 18.4014 76.7935 17.0029C76.7935 15.6991 76.394 14.656 75.6185 13.8738C74.843 13.0916 73.6682 12.6886 72.0937 12.6886H68.9683V21.5778H71.7412Z" fill="#5865F2"/>
<path d="M99.2129 26.154C97.8264 25.7984 96.5811 25.2769 95.4766 24.5657V20.2751C96.3226 20.9389 97.4269 21.4604 98.8369 21.8871C100.247 22.3138 101.61 22.5272 102.926 22.5272C103.537 22.5272 104.007 22.456 104.312 22.2901C104.618 22.1242 104.782 21.9345 104.782 21.6975C104.782 21.4367 104.688 21.2233 104.524 21.0574C104.359 20.8914 104.03 20.7492 103.537 20.607L100.458 19.9197C98.6959 19.5167 97.4504 18.924 96.6984 18.2128C95.9466 17.5017 95.5941 16.5299 95.5941 15.3446C95.5941 14.3489 95.9231 13.472 96.5574 12.7371C97.2154 12.0022 98.1319 11.4333 99.3304 11.0303C100.529 10.6274 101.915 10.4141 103.537 10.4141C104.97 10.4141 106.286 10.5563 107.484 10.8882C108.683 11.1962 109.67 11.5992 110.445 12.0733V16.1269C109.646 15.6528 108.706 15.2735 107.672 14.989C106.615 14.7045 105.534 14.5623 104.43 14.5623C102.832 14.5623 102.033 14.8468 102.033 15.392C102.033 15.6528 102.15 15.8424 102.409 15.9846C102.667 16.1269 103.114 16.2454 103.772 16.3876L106.333 16.8618C108.001 17.1461 109.247 17.6676 110.069 18.4025C110.892 19.1374 111.291 20.204 111.291 21.65C111.291 23.2146 110.61 24.4709 109.247 25.3717C107.884 26.2962 105.957 26.7465 103.466 26.7465C102.009 26.6991 100.599 26.5094 99.2129 26.154Z" fill="#5865F2"/>
<path d="M117.641 25.609C116.184 24.8742 115.056 23.9024 114.327 22.6697C113.575 21.437 113.223 20.0385 113.223 18.4739C113.223 16.9331 113.599 15.5345 114.374 14.3256C115.15 13.0929 116.278 12.1447 117.758 11.4337C119.238 10.7462 121.024 10.3906 123.092 10.3906C125.654 10.3906 127.769 10.9359 129.46 12.0262V16.7435C128.873 16.3405 128.168 15.9849 127.369 15.7478C126.57 15.4871 125.724 15.3686 124.831 15.3686C123.233 15.3686 122.011 15.653 121.095 16.2457C120.202 16.8383 119.755 17.5969 119.755 18.545C119.755 19.4695 120.178 20.2281 121.071 20.8208C121.941 21.4132 123.21 21.7214 124.855 21.7214C125.701 21.7214 126.547 21.6029 127.369 21.3421C128.192 21.0814 128.92 20.797 129.507 20.4178V24.9927C127.627 26.1306 125.442 26.6995 122.975 26.6995C120.883 26.6995 119.121 26.3202 117.641 25.609Z" fill="#5865F2"/>
<path d="M136.157 25.609C134.676 24.8742 133.548 23.9024 132.773 22.646C131.997 21.3895 131.598 19.991 131.598 18.4265C131.598 16.8857 131.997 15.4871 132.773 14.2782C133.548 13.0692 134.676 12.121 136.133 11.4337C137.59 10.7462 139.352 10.3906 141.375 10.3906C143.396 10.3906 145.159 10.7225 146.616 11.4337C148.073 12.121 149.201 13.0692 149.976 14.2782C150.752 15.4871 151.128 16.862 151.128 18.4265C151.128 19.9673 150.752 21.3895 149.976 22.646C149.201 23.9024 148.096 24.8979 146.616 25.609C145.135 26.3202 143.396 26.6995 141.375 26.6995C139.376 26.6995 137.637 26.3202 136.157 25.609ZM143.937 21.034C144.548 20.4178 144.877 19.5643 144.877 18.545C144.877 17.5021 144.571 16.6961 143.937 16.0797C143.302 15.4634 142.456 15.1552 141.399 15.1552C140.295 15.1552 139.446 15.4634 138.812 16.0797C138.201 16.6961 137.872 17.5021 137.872 18.545C137.872 19.588 138.177 20.4178 138.812 21.034C139.446 21.674 140.295 21.9822 141.399 21.9822C142.456 21.9585 143.326 21.6503 143.937 21.034Z" fill="#5865F2"/>
<path d="M166.851 11.3369V16.9076C166.193 16.4809 165.347 16.2676 164.313 16.2676C162.95 16.2676 161.892 16.6943 161.164 17.5238C160.435 18.3535 160.059 19.6574 160.059 21.4114V26.1525H153.785V11.0761H159.942V15.8883C160.271 14.134 160.835 12.8304 161.587 12.0007C162.339 11.171 163.326 10.7207 164.524 10.7207C165.417 10.7207 166.193 10.9341 166.851 11.3369Z" fill="#5865F2"/>
<path d="M188.004 7.56836V26.1765H181.73V22.7867C181.189 24.0668 180.39 25.0388 179.309 25.7024C178.226 26.3662 176.886 26.698 175.288 26.698C173.878 26.698 172.633 26.3425 171.575 25.655C170.518 24.9677 169.696 23.9957 169.132 22.7867C168.568 21.5542 168.286 20.1792 168.286 18.6622C168.262 17.0739 168.568 15.6517 169.202 14.3953C169.813 13.139 170.706 12.1671 171.834 11.4559C172.962 10.7447 174.254 10.3892 175.711 10.3892C178.696 10.3892 180.696 11.693 181.73 14.3242V7.56836H188.004ZM180.79 20.9141C181.424 20.2978 181.753 19.4681 181.753 18.4726C181.753 17.5006 181.448 16.7183 180.813 16.1258C180.179 15.5332 179.333 15.225 178.273 15.225C177.215 15.225 176.369 15.5332 175.735 16.1495C175.1 16.7657 174.795 17.548 174.795 18.5437C174.795 19.5392 175.1 20.3215 175.735 20.9378C176.369 21.5542 177.192 21.8623 178.249 21.8623C179.309 21.8623 180.155 21.5542 180.79 20.9141Z" fill="#5865F2"/>
<path d="M89.4382 11.9789C91.2404 11.9789 92.7046 10.6521 92.7046 9.01583C92.7046 7.37933 91.2404 6.05273 89.4382 6.05273C87.6334 6.05273 86.1719 7.37933 86.1719 9.01583C86.1719 10.6521 87.6334 11.9789 89.4382 11.9789Z" fill="#5865F2"/>
<path d="M92.7046 14.0156C90.7071 14.8926 88.2162 14.9163 86.1719 14.0156V26.1761H92.7046V14.0156Z" fill="#5865F2"/>
</svg>
