<svg width="72" height="72" viewBox="0 0 72 72" fill="none" xmlns="http://www.w3.org/2000/svg">
<path d="M36 72C55.8823 72 72 55.8823 72 36C72 16.1177 55.8823 0 36 0C16.1177 0 0 16.1177 0 36C0 55.8823 16.1177 72 36 72Z" fill="#1778F2"/>
<path d="M36 71.25C55.468 71.25 71.25 55.468 71.25 36C71.25 16.532 55.468 0.75 36 0.75C16.532 0.75 0.75 16.532 0.75 36C0.75 55.468 16.532 71.25 36 71.25Z" stroke="#87878C" stroke-opacity="0.2" stroke-width="1.5"/>
<path d="M54 36.0451C54 26.0842 45.936 18 36 18C26.064 18 18 26.0842 18 36.0451C18 44.7789 24.192 52.0511 32.4 53.7293V41.4586H28.8V36.0451H32.4V31.5338C32.4 28.0511 35.226 25.218 38.7 25.218H43.2V30.6316H39.6C38.61 30.6316 37.8 31.4436 37.8 32.4361V36.0451H43.2V41.4586H37.8V54C46.89 53.0977 54 45.4105 54 36.0451Z" fill="white"/>
</svg>
