<svg width="72" height="72" viewBox="0 0 72 72" fill="none" xmlns="http://www.w3.org/2000/svg">
<path d="M36 72C55.8823 72 72 55.8823 72 36C72 16.1177 55.8823 0 36 0C16.1177 0 0 16.1177 0 36C0 55.8823 16.1177 72 36 72Z" fill="url(#paint0_linear_2_218)"/>
<path d="M36 71.25C55.468 71.25 71.25 55.468 71.25 36C71.25 16.532 55.468 0.75 36 0.75C16.532 0.75 0.75 16.532 0.75 36C0.75 55.468 16.532 71.25 36 71.25Z" stroke="#87878C" stroke-opacity="0.2" stroke-width="1.5"/>
<path d="M35.9989 30.1504C32.768 30.1504 30.1489 32.7695 30.1489 36.0004C30.1489 39.2312 32.768 41.8504 35.9989 41.8504C39.2297 41.8504 41.8489 39.2312 41.8489 36.0004C41.8489 32.7695 39.2297 30.1504 35.9989 30.1504Z" fill="white"/>
<path fill-rule="evenodd" clip-rule="evenodd" d="M26.584 19.947C32.7906 19.2533 39.2071 19.2533 45.4137 19.947C48.8308 20.3289 51.587 23.0213 51.9881 26.4504C52.7302 32.7954 52.7302 39.2053 51.9881 45.5503C51.587 48.9794 48.8308 51.6718 45.4137 52.0537C39.2071 52.7474 32.7906 52.7474 26.584 52.0537C23.1669 51.6718 20.4108 48.9794 20.0097 45.5503C19.2676 39.2053 19.2676 32.7954 20.0097 26.4504C20.4108 23.0213 23.1669 20.3289 26.584 19.947ZM44.9989 25.2004C44.0047 25.2004 43.1989 26.0063 43.1989 27.0004C43.1989 27.9945 44.0047 28.8004 44.9989 28.8004C45.993 28.8004 46.7989 27.9945 46.7989 27.0004C46.7989 26.0063 45.993 25.2004 44.9989 25.2004ZM27.4489 36.0004C27.4489 31.2783 31.2768 27.4504 35.9989 27.4504C40.7209 27.4504 44.5489 31.2783 44.5489 36.0004C44.5489 40.7224 40.7209 44.5504 35.9989 44.5504C31.2768 44.5504 27.4489 40.7224 27.4489 36.0004Z" fill="white"/>
<defs>
<linearGradient id="paint0_linear_2_218" x1="46.8857" y1="125.686" x2="149.107" y2="24.9444" gradientUnits="userSpaceOnUse">
<stop stop-color="white"/>
<stop offset="0.147864" stop-color="#F6640E"/>
<stop offset="0.443974" stop-color="#BA03A7"/>
<stop offset="0.733337" stop-color="#6A01B9"/>
<stop offset="1" stop-color="#6B01B9"/>
</linearGradient>
</defs>
</svg>
