<svg width="288" height="7" viewBox="0 0 288 7" fill="none" xmlns="http://www.w3.org/2000/svg">
<g clip-path="url(#clip0_2_26)">
<path fill-rule="evenodd" clip-rule="evenodd" d="M267.094 4.9185C272.191 5.07509 276.932 5.20353 281.616 5.37533C282.919 5.42311 285.322 5.43276 285.017 5.74052C284.681 6.07907 282.285 6.02877 280.709 5.99935C272.214 5.84238 263.739 5.64861 255.248 5.48717C229.607 4.9998 203.872 4.78446 178.093 4.65877C144.112 4.49308 110.206 4.8132 76.2734 4.99944C58.3445 5.09799 40.4274 5.34833 22.4637 5.17932C17.5757 5.13314 12.8228 4.97364 8.19312 4.70743C0.366205 4.25736 -2.09496 3.22703 1.86043 2.00637C3.95512 1.35972 5.78709 0.66853 9.89744 0.288862C12.151 0.0807511 14.1393 -0.0604417 15.7002 0.467246C17.0234 0.914804 19.6212 0.96642 22.2687 1.11231C31.7735 1.63695 41.689 1.39381 50.6834 1.16408C62.1659 0.87037 73.7808 0.708316 85.2432 0.507538C98.6746 0.272152 112.306 0.158211 125.895 0.0809542C142.747 -0.0149866 159.579 0.173029 176.431 0.0360304C181.413 -0.0051771 187.021 -0.047001 191.792 0.453449C191.916 0.466494 192.182 0.468475 192.282 0.454782C197.373 -0.238002 202.943 1.0353 208.083 0.345733C208.625 0.27333 209.939 0.250866 210.464 0.312359C217.131 1.09396 225.21 0.604042 232.295 1.03292C234.843 1.18698 237.844 1.29194 240.547 0.975551C241.034 0.918584 242.019 0.888933 242.472 0.934556C248.578 1.55214 256.211 1.1275 262.247 1.78393C262.645 1.82722 263.312 1.86503 263.687 1.83772C270.131 1.37251 274.581 2.71347 281.114 2.38334C283.214 2.27737 286.897 3.5921 285.166 3.96493C283.372 4.35146 284.142 4.39921 286.016 4.52186C287.11 4.59372 288.453 4.6745 287.85 4.93946C287.194 5.22641 285.779 5.13843 284.417 5.09778C279.633 4.95473 274.831 4.82668 270.029 4.7009C269.077 4.67594 267.992 4.62937 267.094 4.9185Z" fill="#AD32D0"/>
<path fill-rule="evenodd" clip-rule="evenodd" d="M267.094 4.9185C272.191 5.07509 276.932 5.20353 281.616 5.37533C282.919 5.42311 285.322 5.43276 285.017 5.74052C284.681 6.07907 282.285 6.02877 280.709 5.99935C272.214 5.84238 263.739 5.64861 255.248 5.48717C229.607 4.9998 203.872 4.78446 178.093 4.65877C144.112 4.49308 110.206 4.8132 76.2734 4.99944C58.3445 5.09799 40.4274 5.34833 22.4637 5.17932C17.5757 5.13314 12.8228 4.97364 8.19312 4.70743C0.366205 4.25736 -2.09496 3.22703 1.86043 2.00637C3.95512 1.35972 5.78709 0.66853 9.89744 0.288862C12.151 0.0807511 14.1393 -0.0604417 15.7002 0.467246C17.0234 0.914804 19.6212 0.96642 22.2687 1.11231C31.7735 1.63695 41.689 1.39381 50.6834 1.16408C62.1659 0.87037 73.7808 0.708316 85.2432 0.507538C98.6746 0.272152 112.306 0.158211 125.895 0.0809542C142.747 -0.0149866 159.579 0.173029 176.431 0.0360304C181.413 -0.0051771 187.021 -0.047001 191.792 0.453449C191.916 0.466494 192.182 0.468475 192.282 0.454782C197.373 -0.238002 202.943 1.0353 208.083 0.345733C208.625 0.27333 209.939 0.250866 210.464 0.312359C217.131 1.09396 225.21 0.604042 232.295 1.03292C234.843 1.18698 237.844 1.29194 240.547 0.975551C241.034 0.918584 242.019 0.888933 242.472 0.934556C248.578 1.55214 256.211 1.1275 262.247 1.78393C262.645 1.82722 263.312 1.86503 263.687 1.83772C270.131 1.37251 274.581 2.71347 281.114 2.38334C283.214 2.27737 286.897 3.5921 285.166 3.96493C283.372 4.35146 284.142 4.39921 286.016 4.52186C287.11 4.59372 288.453 4.6745 287.85 4.93946C287.194 5.22641 285.779 5.13843 284.417 5.09778C279.633 4.95473 274.831 4.82668 270.029 4.7009C269.077 4.67594 267.992 4.62937 267.094 4.9185Z" fill="url(#paint0_linear_2_26)"/>
</g>
<defs>
<linearGradient id="paint0_linear_2_26" x1="-144" y1="3.01688" x2="-143.75" y2="15.0265" gradientUnits="userSpaceOnUse">
<stop stop-color="#01DCBA"/>
<stop offset="1" stop-color="#7F30CB"/>
</linearGradient>
<clipPath id="clip0_2_26">
<rect width="288" height="7" fill="white"/>
</clipPath>
</defs>
</svg>
