<svg width="216" height="7" viewBox="0 0 216 7" fill="none" xmlns="http://www.w3.org/2000/svg">
<g clip-path="url(#clip0_64_11)">
<path fill-rule="evenodd" clip-rule="evenodd" d="M200.28 4.91844C204.102 5.07503 207.657 5.20347 211.169 5.37527C212.146 5.42305 213.948 5.4327 213.719 5.74046C213.467 6.07901 211.67 6.02871 210.489 5.99929C204.119 5.84232 197.764 5.64855 191.397 5.48711C172.17 4.99974 152.873 4.7844 133.542 4.65871C108.062 4.49302 82.6376 4.81314 57.1933 4.99938C43.7494 5.09793 30.3143 5.34827 16.8443 5.17926C13.179 5.13308 9.61506 4.97358 6.14353 4.70737C0.274536 4.2573 -1.57096 3.22697 1.39498 2.00631C2.96568 1.35966 4.33937 0.668469 7.42151 0.288801C9.11132 0.0806901 10.6022 -0.0605027 11.7727 0.467185C12.7649 0.914743 14.7128 0.966359 16.698 1.11225C23.8252 1.63689 31.2603 1.39375 38.0047 1.16402C46.6148 0.870309 55.3242 0.708255 63.9193 0.507477C73.9908 0.272091 84.2122 0.15815 94.4019 0.0808932C107.038 -0.0150476 119.66 0.172968 132.296 0.0359694C136.032 -0.00523813 140.237 -0.047062 143.815 0.453388C143.908 0.466433 144.107 0.468414 144.182 0.454721C147.999 -0.238063 152.176 1.03524 156.03 0.345672C156.437 0.273269 157.422 0.250805 157.816 0.312298C162.815 1.0939 168.873 0.603981 174.186 1.03286C176.096 1.18692 178.347 1.29188 180.373 0.97549C180.739 0.918523 181.477 0.888872 181.817 0.934495C186.395 1.55208 192.119 1.12744 196.645 1.78387C196.943 1.82716 197.444 1.86497 197.725 1.83766C202.557 1.37245 205.894 2.71341 210.792 2.38328C212.367 2.27731 215.129 3.59204 213.831 3.96487C212.486 4.3514 213.063 4.39915 214.468 4.5218C215.288 4.59366 216.296 4.67444 215.843 4.9394C215.351 5.22635 214.29 5.13837 213.269 5.09772C209.682 4.95467 206.081 4.82662 202.48 4.70084C201.766 4.67588 200.953 4.62931 200.28 4.91844Z" fill="#AD32D0"/>
<path fill-rule="evenodd" clip-rule="evenodd" d="M200.28 4.91844C204.102 5.07503 207.657 5.20347 211.169 5.37527C212.146 5.42305 213.948 5.4327 213.719 5.74046C213.467 6.07901 211.67 6.02871 210.489 5.99929C204.119 5.84232 197.764 5.64855 191.397 5.48711C172.17 4.99974 152.873 4.7844 133.542 4.65871C108.062 4.49302 82.6376 4.81314 57.1933 4.99938C43.7494 5.09793 30.3143 5.34827 16.8443 5.17926C13.179 5.13308 9.61506 4.97358 6.14353 4.70737C0.274536 4.2573 -1.57096 3.22697 1.39498 2.00631C2.96568 1.35966 4.33937 0.668469 7.42151 0.288801C9.11132 0.0806901 10.6022 -0.0605027 11.7727 0.467185C12.7649 0.914743 14.7128 0.966359 16.698 1.11225C23.8252 1.63689 31.2603 1.39375 38.0047 1.16402C46.6148 0.870309 55.3242 0.708255 63.9193 0.507477C73.9908 0.272091 84.2122 0.15815 94.4019 0.0808932C107.038 -0.0150476 119.66 0.172968 132.296 0.0359694C136.032 -0.00523813 140.237 -0.047062 143.815 0.453388C143.908 0.466433 144.107 0.468414 144.182 0.454721C147.999 -0.238063 152.176 1.03524 156.03 0.345672C156.437 0.273269 157.422 0.250805 157.816 0.312298C162.815 1.0939 168.873 0.603981 174.186 1.03286C176.096 1.18692 178.347 1.29188 180.373 0.97549C180.739 0.918523 181.477 0.888872 181.817 0.934495C186.395 1.55208 192.119 1.12744 196.645 1.78387C196.943 1.82716 197.444 1.86497 197.725 1.83766C202.557 1.37245 205.894 2.71341 210.792 2.38328C212.367 2.27731 215.129 3.59204 213.831 3.96487C212.486 4.3514 213.063 4.39915 214.468 4.5218C215.288 4.59366 216.296 4.67444 215.843 4.9394C215.351 5.22635 214.29 5.13837 213.269 5.09772C209.682 4.95467 206.081 4.82662 202.48 4.70084C201.766 4.67588 200.953 4.62931 200.28 4.91844Z" fill="url(#paint0_linear_64_11)"/>
</g>
<defs>
<linearGradient id="paint0_linear_64_11" x1="-7.2396e-05" y1="-2.713e-05" x2="112.116" y2="66.09" gradientUnits="userSpaceOnUse">
<stop stop-color="#FF54BB"/>
<stop offset="1" stop-color="#483CFF"/>
</linearGradient>
<clipPath id="clip0_64_11">
<rect width="215.956" height="7" fill="white"/>
</clipPath>
</defs>
</svg>
