<svg width="774" height="783" viewBox="0 0 774 783" fill="none" xmlns="http://www.w3.org/2000/svg">
<circle cx="387.245" cy="396.421" r="385.842" stroke="#666666" stroke-dasharray="2 4"/>
<circle cx="386.291" cy="397.375" r="219.858" stroke="#666666" stroke-dasharray="2 4"/>
<circle cx="387.245" cy="396.421" r="104.432" stroke="#666666" stroke-dasharray="2 4"/>
<circle cx="386.291" cy="395.467" r="134.958" stroke="#9D9D9D" stroke-linecap="round"/>
<circle cx="387.245" cy="397.375" r="260.877" stroke="#9D9D9D" stroke-linecap="round"/>
<g filter="url(#filter0_d_1_3)">
<rect x="310.931" y="320.106" width="150.721" height="150.721" rx="75.3606" fill="url(#paint0_linear_1_3)"/>
</g>
<rect x="413.302" y="0.707764" width="19.0786" height="19.0786" rx="9.53931" fill="url(#paint1_linear_1_3)"/>
<line x1="425.489" y1="9.57874" x2="588.524" y2="9.57874" stroke="#5A64C6"/>
<rect x="510.302" y="162.708" width="19.0786" height="19.0786" rx="9.53931" fill="url(#paint2_linear_1_3)"/>
<line x1="527.473" y1="171.747" x2="597.11" y2="171.747" stroke="#5A64C6"/>
<rect x="597.11" y="363.033" width="19.0786" height="19.0786" rx="9.53931" fill="url(#paint3_linear_1_3)"/>
<line x1="614.281" y1="372.073" x2="683.918" y2="372.073" stroke="#5A64C6"/>
<rect x="492.177" y="466.058" width="19.0786" height="19.0786" rx="9.53931" fill="url(#paint4_linear_1_3)"/>
<line x1="502.217" y1="480.367" x2="502.217" y2="550.004" stroke="#5A64C6"/>
<rect x="341.456" y="485.136" width="19.0786" height="19.0786" rx="9.53931" fill="url(#paint5_linear_1_3)"/>
<line x1="351.496" y1="499.446" x2="351.496" y2="736.975" stroke="#5A64C6"/>
<defs>
<filter id="filter0_d_1_3" x="286.931" y="304.106" width="198.721" height="198.721" filterUnits="userSpaceOnUse" color-interpolation-filters="sRGB">
<feFlood flood-opacity="0" result="BackgroundImageFix"/>
<feColorMatrix in="SourceAlpha" type="matrix" values="0 0 0 0 0 0 0 0 0 0 0 0 0 0 0 0 0 0 127 0" result="hardAlpha"/>
<feOffset dy="8"/>
<feGaussianBlur stdDeviation="12"/>
<feColorMatrix type="matrix" values="0 0 0 0 0.0980392 0 0 0 0 0.529412 0 0 0 0 0.329412 0 0 0 0.4 0"/>
<feBlend mode="normal" in2="BackgroundImageFix" result="effect1_dropShadow_1_3"/>
<feBlend mode="normal" in="SourceGraphic" in2="effect1_dropShadow_1_3" result="shape"/>
</filter>
<linearGradient id="paint0_linear_1_3" x1="235.57" y1="395.467" x2="386.291" y2="546.188" gradientUnits="userSpaceOnUse">
<stop stop-color="#01DCBA"/>
<stop offset="1" stop-color="#7F30CB"/>
</linearGradient>
<linearGradient id="paint1_linear_1_3" x1="403.763" y1="10.2471" x2="422.841" y2="29.3257" gradientUnits="userSpaceOnUse">
<stop stop-color="#01DCBA"/>
<stop offset="1" stop-color="#7F30CB"/>
</linearGradient>
<linearGradient id="paint2_linear_1_3" x1="500.763" y1="172.247" x2="519.841" y2="191.326" gradientUnits="userSpaceOnUse">
<stop stop-color="#01DCBA"/>
<stop offset="1" stop-color="#7F30CB"/>
</linearGradient>
<linearGradient id="paint3_linear_1_3" x1="587.571" y1="372.573" x2="606.649" y2="391.651" gradientUnits="userSpaceOnUse">
<stop stop-color="#01DCBA"/>
<stop offset="1" stop-color="#7F30CB"/>
</linearGradient>
<linearGradient id="paint4_linear_1_3" x1="482.638" y1="475.597" x2="501.717" y2="494.675" gradientUnits="userSpaceOnUse">
<stop stop-color="#01DCBA"/>
<stop offset="1" stop-color="#7F30CB"/>
</linearGradient>
<linearGradient id="paint5_linear_1_3" x1="331.917" y1="494.676" x2="350.996" y2="513.754" gradientUnits="userSpaceOnUse">
<stop stop-color="#01DCBA"/>
<stop offset="1" stop-color="#7F30CB"/>
</linearGradient>
</defs>
</svg>
