<svg width="72" height="72" viewBox="0 0 72 72" fill="none" xmlns="http://www.w3.org/2000/svg">
<path d="M36 72C55.8823 72 72 55.8823 72 36C72 16.1177 55.8823 0 36 0C16.1177 0 0 16.1177 0 36C0 55.8823 16.1177 72 36 72Z" fill="#1DA1F2"/>
<path d="M36 71.25C55.468 71.25 71.25 55.468 71.25 36C71.25 16.532 55.468 0.75 36 0.75C16.532 0.75 0.75 16.532 0.75 36C0.75 55.468 16.532 71.25 36 71.25Z" stroke="#87878C" stroke-opacity="0.2" stroke-width="1.5"/>
<path d="M53.6539 25.6096C53.7582 25.4642 53.6041 25.2765 53.4373 25.3412C52.2516 25.8008 51.0124 26.1109 49.7483 26.2637C51.1558 25.4228 52.2418 24.1429 52.8441 22.6275C52.9054 22.4732 52.7369 22.3353 52.5915 22.4156C51.2834 23.138 49.8726 23.6582 48.4071 23.9578C48.3458 23.9704 48.2826 23.9495 48.2395 23.904C47.1398 22.7436 45.6921 21.971 44.114 21.704C42.5027 21.4314 40.8465 21.7013 39.4052 22.4714C37.9638 23.2415 36.8188 24.4682 36.1498 25.9592C35.5136 27.3768 35.342 28.957 35.6557 30.4746C35.6801 30.5924 35.5879 30.7036 35.4679 30.6961C32.6166 30.519 29.8307 29.7606 27.2819 28.4666C24.7396 27.1759 22.4883 25.3803 20.6651 23.1905C20.5842 23.0933 20.4308 23.1059 20.3719 23.2178C19.8046 24.2943 19.5075 25.4942 19.5083 26.7137C19.506 27.9276 19.8039 29.1232 20.3755 30.1941C20.9471 31.265 21.7746 32.1779 22.7843 32.8517C21.7135 32.8225 20.6635 32.5578 19.7086 32.0778C19.5855 32.0159 19.4379 32.104 19.4443 32.2416C19.5188 33.8422 20.1064 35.4491 21.1235 36.682C22.2059 37.994 23.7082 38.8918 25.3763 39.2237C24.7342 39.4191 24.0675 39.5221 23.3963 39.5297C23.031 39.5254 22.6665 39.4984 22.3047 39.449C22.1706 39.4306 22.061 39.5581 22.108 39.685C22.6055 41.0305 23.4845 42.2046 24.6403 43.0616C25.8759 43.9778 27.3664 44.4861 28.9043 44.5157C26.3073 46.5591 23.1009 47.6744 19.7963 47.6837C19.4568 47.6848 19.1174 47.6738 18.7788 47.6507C18.588 47.6377 18.5002 47.8919 18.6647 47.9895C21.8845 49.9003 25.5646 50.9102 29.3183 50.9057C32.0898 50.9344 34.8392 50.4107 37.4059 49.365C39.9727 48.3193 42.3054 46.7727 44.2677 44.8154C46.23 42.8581 47.7827 40.5294 48.8349 37.9653C49.8872 35.4012 50.418 32.6532 50.3963 29.8817V29.018C50.3963 28.9611 50.4232 28.9077 50.4686 28.8735C51.6895 27.9516 52.7632 26.851 53.6539 25.6096Z" fill="white"/>
</svg>
