<svg width="29" height="22" viewBox="0 0 29 22" fill="none" xmlns="http://www.w3.org/2000/svg">
<g clip-path="url(#clip0_2_506)">
<path d="M5.93341 4.31153C10.6569 -1.38326 18.3154 -1.38326 23.0389 4.31153L23.6074 4.99686C23.6635 5.06381 23.7081 5.14395 23.7385 5.23251C23.7689 5.32108 23.7846 5.41626 23.7846 5.51243C23.7846 5.6086 23.7689 5.70378 23.7385 5.79235C23.7081 5.88091 23.6635 5.96105 23.6074 6.028L21.6627 8.37261C21.6054 8.44104 21.5287 8.47932 21.4489 8.47932C21.3691 8.47932 21.2924 8.44104 21.2351 8.37261L20.4527 7.42946C17.1574 3.45662 11.8148 3.45662 8.51947 7.42946L7.68169 8.43956C7.62439 8.508 7.5477 8.54627 7.46787 8.54627C7.38805 8.54627 7.31136 8.508 7.25406 8.43956L5.30944 6.09496C5.25339 6.028 5.20882 5.94786 5.17838 5.8593C5.14795 5.77074 5.13226 5.67555 5.13226 5.57938C5.13226 5.48322 5.14795 5.38803 5.17838 5.29946C5.20882 5.2109 5.25339 5.13077 5.30944 5.06381L5.93341 4.31153ZM27.0606 9.16033L28.7914 11.247C28.8475 11.314 28.8921 11.3941 28.9225 11.4827C28.9529 11.5712 28.9686 11.6664 28.9686 11.7626C28.9686 11.8587 28.9529 11.9539 28.9225 12.0425C28.8921 12.1311 28.8475 12.2112 28.7914 12.2781L20.9873 21.6871C20.8727 21.824 20.7193 21.9005 20.5597 21.9005C20.4 21.9005 20.2466 21.824 20.132 21.6871L14.5931 15.0092C14.5645 14.975 14.5261 14.9559 14.4862 14.9559C14.4463 14.9559 14.4079 14.975 14.3793 15.0092L8.84048 21.6871C8.72588 21.824 8.5725 21.9005 8.41285 21.9005C8.2532 21.9005 8.09982 21.824 7.98522 21.6871L0.18078 12.278C0.124722 12.2111 0.0801541 12.1309 0.0497189 12.0424C0.0192837 11.9538 0.00360107 11.8586 0.00360107 11.7625C0.00360107 11.6663 0.0192837 11.5711 0.0497189 11.4825C0.0801541 11.394 0.124722 11.3138 0.18078 11.2469L1.91158 9.16021C2.02618 9.02334 2.17956 8.94679 2.33921 8.94679C2.49886 8.94679 2.65224 9.02334 2.76684 9.16021L8.30585 15.8381C8.3345 15.8723 8.37284 15.8915 8.41275 15.8915C8.45267 15.8915 8.49101 15.8723 8.51966 15.8381L14.0584 9.16021C14.173 9.02334 14.3264 8.94679 14.486 8.94679C14.6457 8.94679 14.799 9.02334 14.9136 9.16021L20.4526 15.8382C20.4813 15.8724 20.5196 15.8916 20.5596 15.8916C20.5995 15.8916 20.6378 15.8724 20.6665 15.8382L26.2054 9.16033C26.32 9.02346 26.4734 8.94691 26.633 8.94691C26.7927 8.94691 26.946 9.02346 27.0606 9.16033Z" fill="#3B99FC"/>
</g>
<defs>
<clipPath id="clip0_2_506">
<rect width="28.9722" height="22" fill="white"/>
</clipPath>
</defs>
</svg>
