<svg width="20" height="20" viewBox="0 0 20 20" fill="none" xmlns="http://www.w3.org/2000/svg">
<path d="M18.0156 6.01562V1.98438H13.9844V6.01562H18.0156ZM18.0156 12.0156V7.98438H13.9844V12.0156H18.0156ZM18.0156 18.0156V13.9844H13.9844V18.0156H18.0156ZM12.0156 6.01562V1.98438H7.98438V6.01562H12.0156ZM12.0156 12.0156V7.98438H7.98438V12.0156H12.0156ZM12.0156 18.0156V13.9844H7.98438V18.0156H12.0156ZM6.01562 6.01562V1.98438H1.98438V6.01562H6.01562ZM6.01562 12.0156V7.98438H1.98438V12.0156H6.01562ZM6.01562 18.0156V13.9844H1.98438V18.0156H6.01562ZM18.0156 0.015625C18.5469 0.015625 19 0.21875 19.375 0.625C19.7812 1 19.9844 1.45313 19.9844 1.98438V18.0156C19.9844 18.5469 19.7812 19.0156 19.375 19.4219C19 19.7969 18.5469 19.9844 18.0156 19.9844H1.98438C1.45312 19.9844 0.984375 19.7969 0.578125 19.4219C0.203125 19.0156 0.015625 18.5469 0.015625 18.0156V1.98438C0.015625 1.45313 0.203125 1 0.578125 0.625C0.984375 0.21875 1.45312 0.015625 1.98438 0.015625H18.0156Z" fill="black"/>
</svg>
