<svg width="150" height="312" viewBox="0 0 150 312" fill="none" xmlns="http://www.w3.org/2000/svg">
<path fill-rule="evenodd" clip-rule="evenodd" d="M0 43.662C0 19.5481 19.5481 0 43.6619 0H105.906C130.02 0 149.568 19.5481 149.568 43.6619V268.338C149.568 292.452 130.02 312 105.906 312H43.6619C19.5481 312 0 292.452 0 268.338V43.662ZM38.3985 4.92988C38.4585 4.92957 38.5185 4.92941 38.5786 4.92941H110.989C111.049 4.92941 111.109 4.92957 111.169 4.92988H38.3985ZM35.8038 5.04218C36.6085 5.32042 37.1865 6.08461 37.1865 6.98377V4.95768C37.2015 11.184 42.2536 16.2268 48.4834 16.2268H100.879C107.111 16.2268 112.165 11.1798 112.176 4.94994L112.176 6.98386C112.176 6.07004 112.773 5.29562 113.598 5.02906C130.962 6.36063 144.637 20.8719 144.637 38.5771V273.217C144.637 291.8 129.572 306.865 110.989 306.865H38.5786C19.9954 306.865 4.93082 291.8 4.93082 273.217V38.5771C4.93082 20.9283 18.5187 6.45313 35.8038 5.04218Z" fill="#232A38"/>
</svg>
