<svg width="14" height="15" viewBox="0 0 14 15" fill="none" xmlns="http://www.w3.org/2000/svg">
<g clip-path="url(#clip0_2_30)">
<path d="M5.57803 0.871005C6.17358 -0.290335 7.8263 -0.290335 8.42184 0.871005C8.77969 1.56883 9.58699 1.9048 10.3312 1.66557C11.5697 1.26746 12.7384 2.44157 12.342 3.68584C12.1039 4.4335 12.4383 5.24458 13.1329 5.6041C14.2889 6.20243 14.2889 7.86287 13.1329 8.46119C12.4383 8.82072 12.1039 9.63179 12.342 10.3795C12.7384 11.6237 11.5697 12.7979 10.3312 12.3997C9.58699 12.1605 8.77969 12.4964 8.42184 13.1943C7.8263 14.3556 6.17358 14.3556 5.57803 13.1943C5.22019 12.4964 4.41288 12.1605 3.6687 12.3997C2.43021 12.7979 1.26156 11.6237 1.65782 10.3795C1.89594 9.63179 1.56154 8.82072 0.866953 8.46119C-0.288985 7.86287 -0.288985 6.20243 0.866953 5.6041C1.56154 5.24458 1.89594 4.4335 1.65782 3.68584C1.26156 2.44157 2.43021 1.26746 3.6687 1.66557C4.41288 1.9048 5.22019 1.56883 5.57803 0.871005Z" fill="#8D99FF"/>
<path fill-rule="evenodd" clip-rule="evenodd" d="M9.8462 4.96974C10.0873 5.20327 10.0942 5.58891 9.86179 5.83108L6.30704 9.53472L4.13819 7.27504C3.90575 7.03285 3.91272 6.64721 4.15378 6.41368C4.39484 6.18016 4.77868 6.18717 5.01113 6.42934L6.30704 7.77954L8.98887 4.9854C9.2213 4.74321 9.60515 4.7362 9.8462 4.96974Z" fill="white"/>
</g>
<defs>
<clipPath id="clip0_2_30">
<rect width="14" height="14.0654" fill="white"/>
</clipPath>
</defs>
</svg>
